<?xml version="1.0" standalone="no"?>
<!DOCTYPE svg PUBLIC "-//W3C//DTD SVG 1.1//EN" "http://www.w3.org/Graphics/SVG/1.1/DTD/svg11.dtd" >
<svg xmlns="http://www.w3.org/2000/svg">
<metadata></metadata>
<defs>
<font id="nilland-extraboldregular" horiz-adv-x="1130" >
<font-face units-per-em="2048" ascent="1638" descent="-410" />
<missing-glyph horiz-adv-x="512" />
<glyph horiz-adv-x="2048" />
<glyph horiz-adv-x="2048" />
<glyph horiz-adv-x="682" />
<glyph horiz-adv-x="681" d="M-2 1403q33 -92 66.5 -145.5t78.5 -88.5q88 -74 199 -73q106 0 197 73q45 35 78.5 88.5t64.5 145.5h-152q-23 -47 -43 -73.5t-43 -41.5q-47 -31 -102 -31q-57 0 -102 31q-23 16 -44.5 42t-43.5 73h-154z" />
<glyph horiz-adv-x="681" d="M244 1155h196v197h-196v-197z" />
<glyph horiz-adv-x="681" d="M121 1253q0 -92 63 -155q66 -66 156 -66t155.5 65.5t65.5 155.5t-65.5 156t-155.5 66t-156 -66q-63 -63 -63 -156zM248 1253q0 41 26.5 68t65.5 27q41 0 67.5 -27t26.5 -68t-26.5 -67.5t-67.5 -26.5q-39 0 -65.5 26.5t-26.5 67.5z" />
<glyph unicode="&#xa;" horiz-adv-x="681" d="M197 1065h153l291 383h-199zM430 1065h154l293 383h-201z" />
<glyph horiz-adv-x="681" d="M131 -164q0 -104 80 -166q76 -59 178 -59q47 0 81 11t81 40v152q-53 -20 -75.5 -26.5t-35.5 -10.5q-10 -2 -23.5 -3t-29.5 -1q-35 0 -68 22q-25 18 -24 60q0 33 18 63q6 8 12.5 17.5t18.5 21.5t31.5 30.5t50.5 45.5h-184q-25 -20 -42.5 -40t-33.5 -44q-35 -51 -35 -113z " />
<glyph horiz-adv-x="681" d="M-31 1438l295 -363h152l297 363h-154l-219 -201l-217 201h-154z" />
<glyph unicode="&#xd;" horiz-adv-x="512" d="M18 -33h508v158h-166v876h-342v-157h170v-719h-170v-158z" />
<glyph horiz-adv-x="704" d="M-236 -33h152l1028 1456h-151z" />
<glyph horiz-adv-x="1110" d="M14 -33h469v158h-141v719h111h28h318v-719h-152v-158h469v158h-145v876h-490h-28h-111v162q0 53 19.5 89t78.5 36q39 0 64 -20q10 -10 21.5 -32t23.5 -69l156 25q-10 68 -31 109.5t-53 74.5q-70 70 -179 70q-119 0 -196 -84q-76 -84 -76 -219v-142h-150v-157h150v-719 h-156v-158zM776 1329q0 -49 35 -80q31 -35 80 -35t80 35q35 35 35 82q0 49 -35 80q-31 35 -80 35t-80 -35q-35 -35 -35 -82z" />
<glyph horiz-adv-x="1110" d="M14 -33h469v158h-141v719h158v157h-158v162q0 53 19.5 89t78.5 36q47 0 69.5 -30.5t39.5 -90.5l158 25q-4 25 -9.5 42t-9.5 32h109v-1141h-150v-158h469v158h-147v1298h-414q-43 23 -111 23q-121 0 -198 -84q-76 -84 -76 -219v-142h-156v-157h156v-719h-156v-158z" />
<glyph horiz-adv-x="1044" d="M-33 387l221 180v-442h-188v-158h1053v619h-176v-461h-508v590l280 229v176l-280 -229v375h186v157h-553v-157h186v-523l-221 -180v-176z" />
<glyph horiz-adv-x="491" d="M-63 367l223 182v-424h-174v-158h520v158h-174v563l225 184v166l-225 -184v569h-348v-157h176v-551l-223 -183v-165z" />
<glyph d="M23 -33h1077v424h-160v-266h-684l823 1165v133h-1011v-157h125h651l-821 -1164v-135zM195 1853l294 -362h152l297 362h-154l-219 -200l-217 200h-153z" />
<glyph horiz-adv-x="980" d="M59 -33h865v420h-152v-262h-491l645 741v135h-817v-157h116h477l-643 -740v-137zM119 1438l295 -363h151l297 363h-153l-220 -201l-217 201h-153z" />
<glyph unicode=" "  horiz-adv-x="512" />
<glyph unicode="&#x09;" horiz-adv-x="512" />
<glyph unicode="&#xa0;" horiz-adv-x="512" />
<glyph unicode="!" horiz-adv-x="512" d="M166 -33h180v176h-180v-176zM170 954l27 -618h118l27 612v475h-172v-469z" />
<glyph unicode="&#x22;" horiz-adv-x="575" d="M39 1198l33 -289h114l33 287v250h-180v-248zM358 1198l33 -289h115l33 287v250h-181v-248z" />
<glyph unicode="#" horiz-adv-x="1368" d="M135 397h160l-86 -415h164l86 415h317l-86 -415h164l86 415h295v158h-262l67 332h195v157h-160l86 418h-164l-86 -418h-317l86 418h-164l-86 -418h-295v-157h260l-67 -332h-193v-158zM492 555l67 332h318l-68 -332h-317z" />
<glyph unicode="$" horiz-adv-x="1044" d="M90 1034q0 -162 98 -266q84 -86 271 -131v-526q-51 10 -92 28.5t-82 59.5l-119 -119q66 -59 136.5 -89t156.5 -40v-158h159v160q154 18 261 106q141 113 141 287q0 170 -100 287q-84 92 -302 145v445q59 -18 101 -62q35 -37 55.5 -93t22.5 -150h166q-6 141 -41 230 t-101 142q-96 74 -203 94v62h-159v-62q-135 -18 -236 -94q-133 -104 -133 -256zM264 1034q0 88 72 142q49 39 123 55v-418q-84 27 -131 64q-63 53 -64 157zM618 106v498q123 -33 168 -78q70 -64 70 -168q0 -111 -86 -184q-31 -27 -67.5 -44t-84.5 -24z" />
<glyph unicode="%" horiz-adv-x="1728" d="M35 1042q0 -92 17.5 -166.5t56.5 -127.5q41 -57 100 -84t137 -27q76 0 135.5 26.5t98.5 84.5q39 53 56 127.5t17 166.5q0 70 -14 149t-59 142h657l-963 -1366h150l1026 1456h-117h-16h-848q-57 23 -125 23q-156 0 -233 -111q-76 -106 -76 -293zM186 1040q0 72 11.5 125.5 t31.5 89.5q39 68 117 68t117 -68q20 -35 31.5 -88t11.5 -125t-11.5 -126t-31.5 -91q-37 -66 -117 -65q-78 0 -117 67q-20 35 -31.5 88.5t-11.5 124.5zM1073 362q0 -92 17.5 -166.5t56.5 -127.5q41 -57 100.5 -84t134.5 -27q92 0 151.5 34t94.5 91t49.5 129.5t14.5 150.5 q0 188 -74 295q-80 111 -236 111q-154 0 -233 -111q-76 -109 -76 -295zM1225 360q0 72 11 125.5t32 92.5q39 68 114 67q78 0 119 -67q20 -35 31.5 -89.5t11.5 -126.5t-11 -126t-32 -91q-37 -66 -117 -65q-78 0 -116 65q-20 35 -31.5 89.5t-11.5 125.5z" />
<glyph unicode="&#x26;" horiz-adv-x="1429" d="M74 410q0 -176 129 -318q127 -145 358 -145q115 0 238 53q82 39 153 111l105 -144l186 6l-180 265q47 61 80 131q43 88 74 204h163v158h-295q-16 -78 -32.5 -137t-38.5 -113q-25 -63 -51 -106l-295 405q117 47 202 113q127 98 127 242q0 135 -104 225q-104 86 -244 86 q-143 0 -252 -90q-109 -92 -108 -232q0 -90 67 -188q16 -25 31.5 -46.5t30.5 -41.5q-145 -59 -234 -150q-57 -57 -83.5 -129.5t-26.5 -158.5zM254 430q0 94 74 172q31 33 77 62.5t107 54.5l344 -475q-68 -66 -117 -92q-76 -39 -164 -39q-137 0 -229 92t-92 225zM457 1133 q0 74 55 114q57 43 133 43q82 0 139 -45q54 -40 54 -108q0 -78 -78 -136q-70 -51 -185 -90q-14 18 -29.5 41t-33.5 49q-29 45 -42 77t-13 55z" />
<glyph unicode="'" horiz-adv-x="448" d="M135 1198l33 -289h115l32 287v250h-180v-248z" />
<glyph unicode="(" horiz-adv-x="724" d="M147 489q0 -322 123 -567q63 -123 167 -217t270 -168v158q-113 66 -184.5 143.5t-114.5 173.5q-86 190 -86 477t86 478q43 96 114.5 174t184.5 143v158q-166 -74 -269.5 -168t-167.5 -217q-123 -246 -123 -568z" />
<glyph unicode=")" horiz-adv-x="724" d="M18 -305v-158q166 74 269.5 168t167.5 217q123 245 123 567t-123 568q-63 123 -167 217t-270 168v-158q113 -66 184.5 -143.5t114.5 -173.5q86 -190 86 -478q0 -287 -86 -477q-43 -96 -114.5 -174t-184.5 -143z" />
<glyph unicode="*" horiz-adv-x="1003" d="M39 1018q86 -29 134 -42t69 -13q10 0 49 -6.5t110 -22.5q-53 -59 -77.5 -86t-26.5 -29q-12 -4 -46 -43t-93 -121l149 -112q57 76 88 121t31 63q0 2 76 135q76 -133 76 -137q0 -16 30.5 -61.5t87.5 -120.5l150 112q-59 82 -93 121t-46 43q-2 2 -27 28.5t-78 86.5 q72 16 113 22.5t53 6.5q16 0 63.5 13t133.5 42l-58 178q-92 -29 -140 -47.5t-58 -28.5q2 0 -146 -69q10 82 15.5 118.5t5.5 38.5q8 16 10 67.5t2 147.5h-188q0 -96 2 -147t10 -68q0 -2 5 -38.5t15 -118.5q-147 70 -145 69q-10 10 -58.5 28.5t-140.5 47.5z" />
<glyph unicode="+" horiz-adv-x="1366" d="M113 582h491v-496h156v496h491v155h-491v490h-156v-490h-491v-155z" />
<glyph unicode="," horiz-adv-x="512" d="M147 -152v-141q66 4 101 22.5t57.5 53.5t31.5 80t9 100v199h-180v-195h49q-2 -47 -5 -73.5t-7 -34.5q-4 -6 -14.5 -8.5t-41.5 -2.5z" />
<glyph unicode="-" horiz-adv-x="704" d="M37 481h627v158h-627v-158z" />
<glyph unicode="." horiz-adv-x="512" d="M176 -33h180v197h-180v-197z" />
<glyph unicode="/" horiz-adv-x="575" d="M-45 -70h164l499 1493h-163z" />
<glyph unicode="0" horiz-adv-x="1087" d="M63 696q0 -346 115 -542q117 -205 365 -205t366 205q115 196 115 542q0 348 -115 545q-117 205 -364 205q-248 0 -367 -205q-115 -197 -115 -545zM233 696q0 145 20.5 256t61.5 191q39 78 95.5 114.5t132.5 36.5q154 0 229 -151q41 -80 61.5 -191t20.5 -256 q0 -281 -82 -444q-39 -78 -95 -115t-132 -37q-154 0 -230 152q-82 164 -82 444z" />
<glyph unicode="1" horiz-adv-x="1087" d="M270 -33h566v158h-197v1302l-369 -49v-133h197v-1120h-197v-158z" />
<glyph unicode="2" horiz-adv-x="1087" d="M78 27l4 -60h879l4 395h-156v-237h-553q25 119 104 233q94 129 314 265q150 90 217 190q66 96 65 240q0 174 -112 284q-111 109 -295 109q-100 0 -182 -35t-158 -119l110 -112q51 66 105.5 90t126.5 24q100 0 167.5 -67.5t67.5 -173.5q0 -111 -55 -179q-57 -70 -176 -141 q-268 -164 -373 -362q-51 -96 -79.5 -182.5t-24.5 -161.5z" />
<glyph unicode="3" horiz-adv-x="1087" d="M125 1006h166q2 92 18.5 143t44.5 82q63 63 166 63q106 0 168 -65q63 -70 64 -172q0 -115 -76 -187q-37 -35 -85 -48t-114 -21l-65 -8v-142l123 2q135 2 219 -71q80 -72 80 -195q0 -125 -84 -205q-82 -82 -218 -82q-68 0 -125 25t-116 84l-123 -105q86 -86 173 -120.5 t187 -34.5q102 0 187.5 29.5t150.5 91.5q135 122 135 315q0 164 -92 262q-31 35 -69.5 59.5t-83.5 41.5q63 39 104 96q61 88 62 209q0 170 -113 280q-111 113 -283 113q-178 0 -284 -109q-55 -53 -84 -133t-33 -198z" />
<glyph unicode="4" horiz-adv-x="1087" d="M-16 379l157 -4h504v-283v-125h322v158h-166v250h227v147h-227v914h-142l-598 -928zM244 522l401 637v-637h-401z" />
<glyph unicode="5" horiz-adv-x="1087" d="M127 657q29 -10 41 -15t22 -11q8 -4 18.5 -13.5t39.5 -37.5q47 66 82 99.5t69 51.5q70 39 150 39q133 0 217 -88q82 -88 82 -233q0 -154 -88 -252q-86 -96 -225 -97q-63 0 -135 28t-126 79l-90 -107q86 -84 169 -117.5t179 -33.5q211 0 351 139q133 140 133 363 q0 203 -125 335q-127 135 -318 136q-74 0 -143.5 -24t-128.5 -67l41 424h465h127v168h-739z" />
<glyph unicode="6" horiz-adv-x="1087" d="M100 659q0 -182 29 -317t90 -221q125 -172 350 -172q197 0 320 139q121 135 121 354q0 207 -115 340q-121 133 -303 133q-92 0 -173 -35.5t-149 -95.5q12 217 78 355q76 156 252 155q51 0 93 -20.5t89 -77.5l105 121q-72 70 -143.5 99.5t-153.5 29.5q-236 0 -367 -211 q-63 -104 -93 -247.5t-30 -328.5zM268 569v23q61 74 140 119q88 53 170 53q121 0 192 -86q72 -88 72 -244q0 -154 -76 -246q-37 -43 -85 -65.5t-114 -22.5q-127 0 -211 115q-88 117 -88 354z" />
<glyph unicode="7" horiz-adv-x="1087" d="M98 1049h160v206h514q-164 -225 -252 -518q-25 -82 -43 -192.5t-30.5 -211t-18.5 -169.5l-6 -70v-127h336v158h-164q6 305 94 596q92 307 287 567v135h-877v-374z" />
<glyph unicode="8" horiz-adv-x="1087" d="M53 385q0 -190 142 -315q143 -121 350 -121q211 0 348 119q139 122 139 315q0 135 -74 238q-55 76 -151 116q94 47 138 129t44 187q0 172 -129 282.5t-317 110.5q-195 0 -318 -109q-127 -115 -127 -286q0 -135 74 -228q41 -53 107 -86q-88 -41 -142 -108 q-84 -102 -84 -244zM223 391q0 123 84 195q86 74 238 73q143 0 233 -73q86 -74 86 -197q0 -133 -88 -209q-86 -80 -233 -80t-234 80q-86 76 -86 211zM262 1047q0 111 78 178q82 70 211 69q119 0 199 -69q75 -68 75 -174q0 -117 -73 -179q-76 -66 -209 -65q-131 0 -207 65 q-74 61 -74 175z" />
<glyph unicode="9" horiz-adv-x="1087" d="M76 950q0 -203 114 -336q119 -135 304 -135q121 0 233 66q47 29 88 63q-8 -111 -26.5 -200t-51.5 -154q-76 -154 -239 -154q-55 0 -98.5 19.5t-90.5 70.5l-106 -114q72 -70 145.5 -98.5t159.5 -28.5q233 0 358 217q119 211 119 569q0 182 -28.5 317.5t-90.5 221.5 q-123 172 -346 172q-195 0 -321 -139q-123 -141 -123 -357zM246 948q0 164 73 256q74 90 201 90q129 0 213 -110q41 -57 62.5 -145.5t21.5 -213.5v-24q-68 -78 -141 -119q-88 -51 -166 -51q-121 0 -191 86q-74 86 -73 231z" />
<glyph unicode=":" horiz-adv-x="512" d="M176 -33h180v197h-180v-197zM176 745h180v197h-180v-197z" />
<glyph unicode=";" horiz-adv-x="512" d="M147 -152v-141q66 4 101 22.5t57.5 53.5t31.5 80t9 100v199h-180v-195h49q-2 -47 -5 -73.5t-7 -34.5q-4 -6 -14.5 -8.5t-41.5 -2.5zM176 745h180v197h-180v-197z" />
<glyph unicode="&#x3c;" horiz-adv-x="1366" d="M113 592l1138 -483v174l-895 372l895 373v174l-1138 -483v-127z" />
<glyph unicode="=" horiz-adv-x="1366" d="M123 526h1139v156h-1139v-156zM123 813h1139v156h-1139v-156z" />
<glyph unicode="&#x3e;" horiz-adv-x="1366" d="M129 109l1139 483v127l-1139 483v-174l893 -373l-893 -372v-174z" />
<glyph unicode="?" horiz-adv-x="917" d="M29 1001h161q0 86 17.5 135.5t52.5 84.5q68 68 178 67q115 0 187 -74q72 -76 71 -176q0 -139 -88 -192q-66 -43 -164 -43q-31 0 -82 6l-47 -16l41 -449h111l25 297q172 4 272 118.5t100 276.5q0 154 -110 281q-115 129 -308 129q-201 0 -311 -123q-53 -61 -79.5 -137 t-26.5 -185zM317 -33h181v197h-181v-197z" />
<glyph unicode="@" horiz-adv-x="1363" d="M125 811q0 -248 166 -432q168 -186 436 -186q182 0 338 90l-53 94q-59 -31 -140 -49.5t-155 -18.5q-176 0 -328 140q-145 141 -145 356q0 209 141 354.5t334 145.5q178 0 299 -121t121 -277q0 -147 -84 -256q-43 -59 -80 -81.5t-66 -22.5l-2 2v4q0 8 2 14l123 578h-149 l-11 -49q-10 12 -23 21t-28 18q-68 37 -127 36q-174 0 -276 -145q-98 -141 -99 -303q0 -143 78 -223q82 -78 183 -78q86 0 155 47q16 10 28.5 21.5t24.5 21.5q6 -31 23 -53q10 -16 26.5 -28.5t39.5 -12.5q72 0 136 38t124 109q119 143 118 338q0 209 -153 363 q-154 156 -387 155q-246 0 -420 -186q-170 -186 -170 -424zM469 715q0 131 63 233q63 98 160 99q59 0 94 -41q39 -42 39 -101q0 -115 -69 -239q-35 -61 -72 -88t-78 -27q-49 0 -94 39q-20 18 -31.5 48t-11.5 77z" />
<glyph unicode="A" horiz-adv-x="1368" d="M-59 -33h356v125l137 404h516l129 -371h-159v-158h526v158h-182l-400 1141h160v157h-451l-36 -114l-410 -1184h-186v-158zM489 653l205 594l203 -594h-408z" />
<glyph unicode="B" horiz-adv-x="1153" d="M2 1266h178v-1174v-2v-125l406 2q240 0 379 109q141 112 141 321q0 141 -82 238q-53 68 -143 106q55 35 92 84q63 82 63 209q0 188 -120.5 288.5t-329.5 100.5h-584v-157zM360 125v522h220q90 0 153.5 -17.5t106.5 -47.5q86 -62 86 -193q0 -125 -88 -194 q-92 -70 -263 -70h-215zM360 805v461h220q127 0 204 -62q72 -62 72 -166q0 -106 -78 -168q-81 -65 -213 -65h-4h-201z" />
<glyph unicode="C" horiz-adv-x="1536" d="M94 696q0 -336 201 -542q203 -207 526 -207q227 0 406 116q90 59 159.5 156.5t126.5 247.5l-151 90q-53 -141 -107.5 -223t-117.5 -127q-131 -94 -314 -94q-240 0 -393 163q-156 162 -156 420t152 422q152 162 389 162q168 0 309 -92q70 -45 112 -109.5t62 -165.5h156 v387h-160v-49q-88 88 -192 133q-141 61 -283 62q-319 0 -524 -209q-201 -213 -201 -541z" />
<glyph unicode="D" horiz-adv-x="1449" d="M-16 1266h192v-1174v-125h434q211 0 362.5 54.5t241.5 166.5q172 217 172 506q0 324 -190 527q-194 202 -580 202h-4h-628v-157zM356 125v1141h267q281 0 432 -148t151 -424q0 -145 -36.5 -249.5t-108.5 -176.5q-147 -143 -434 -143h-271z" />
<glyph unicode="E" horiz-adv-x="1236" d="M-2 1266h178v-1174v-125h1002v158h-127h-695v508h578v158h-578v475h662v-246h158v403h-1178v-157z" />
<glyph unicode="F" horiz-adv-x="1087" d="M-2 -33h360v125v545l512 -2v160h-512v471h607v-248h157v405h-1124v-157h180v-1141h-180v-158z" />
<glyph unicode="G" horiz-adv-x="1622" d="M70 696q0 -164 52 -299t161 -239q211 -211 542 -211q313 0 514 184q102 94 152.5 221t52.5 307h-758v-157h568q-35 -176 -170 -277q-153 -112 -353 -112h-4q-256 0 -415 163q-162 166 -162 420q0 260 155.5 422t395.5 162q166 0 311 -92q72 -47 121 -113.5t80 -171.5h149 v418h-157v-80q-78 78 -185 131q-154 74 -321 74q-313 0 -520 -213q-209 -215 -209 -537z" />
<glyph unicode="H" horiz-adv-x="1409" d="M6 1266h170v-1141h-168v-158h348v125v557h695v-524h-179v-158h359v125v1174h168v157h-529v-157h181v-461h-695v493v125h-350v-157z" />
<glyph unicode="I" horiz-adv-x="575" d="M37 -33h530v158h-176v1173v125h-180v-125v-1173h-174v-158zM209 1462h180v197h-180v-197z" />
<glyph unicode="J" horiz-adv-x="555" d="M-35 -465q117 0 191.5 21.5t122.5 68.5q49 47 71.5 117t22.5 160v1364h198v157h-587v-157h209v-1377q0 -59 -11.5 -95t-30 -54.5t-57.5 -29.5t-121 -11z" />
<glyph unicode="K" horiz-adv-x="1193" d="M-6 1266h184v-1174v-125h373v158h-193v537l535 -592l90 -103h279v158h-168l-562 614l533 527h168v157h-238l-100 -102l-537 -526v471h191v157h-555v-157z" />
<glyph unicode="L" horiz-adv-x="1044" d="M0 -33h1053v516h-176v-358h-508v1141h2v157h-371v-157h188v-1141h-188v-158z" />
<glyph unicode="M" horiz-adv-x="1748" d="M6 1266h180v-1174v-125h328v158h-166v1042l486 -1200h67l490 1198v-1073v-125h354v158h-174v1141h174v157h-414l-454 -1112l-459 1112h-412v-157z" />
<glyph unicode="N" horiz-adv-x="1449" d="M-12 1266h186v-1174v-125h358v158h-196v1030l786 -1206h160v1317h180v157h-342v-125v-1034q-86 135 -171 265t-171 259q-102 152 -202.5 307.5t-208.5 327.5h-379v-157z" />
<glyph unicode="O" horiz-adv-x="1599" d="M70 696q0 -322 209 -536q207 -213 524 -213t524 213q209 214 209 536t-209 537q-207 213 -524 213t-524 -213q-209 -215 -209 -537zM250 696q0 254 158 418q154 166 395 166q240 0 397 -164q156 -168 156 -420t-156 -420q-157 -163 -394 -163h-3q-242 0 -395 166 q-158 164 -158 417z" />
<glyph unicode="P" d="M0 -33h365v125v449h284q213 0 344 118q131 123 131 322q0 211 -133 326q-66 59 -157 87.5t-205 28.5h-629v-157h184v-1141h-184v-158zM365 698v568h243q182 0 258 -70q37 -33 57.5 -88t20.5 -139q0 -137 -82 -201q-43 -35 -105.5 -52.5t-148.5 -17.5h-243z" />
<glyph unicode="Q" horiz-adv-x="1599" d="M70 696q0 -322 209 -536q100 -106 245 -162q-27 -10 -52.5 -25.5t-57.5 -42.5l80 -112q39 27 61.5 39t44.5 18q41 14 80 14q25 0 89.5 -23.5t141 -58t150.5 -72.5t115 -65l94 140q-20 12 -56 30.5t-78 40t-87 42t-84 38.5q213 43 362 199q209 214 209 536t-209 537 q-207 213 -524 213t-524 -213q-209 -215 -209 -537zM250 696q0 254 158 418q154 166 395 166q240 0 397 -164q156 -168 156 -420t-156 -420q-157 -163 -394 -163h-3q-242 0 -395 166q-158 164 -158 417z" />
<glyph unicode="R" horiz-adv-x="1173" d="M-27 1266h205v-1301h180v697h254l314 -695h311v158h-190l-252 557q145 39 221 125q84 98 84 250q0 160 -117 264q-115 102 -293 102h-717v-157zM358 819v447h308q121 0 186 -62q68 -55 68 -157q0 -113 -72 -168q-76 -59 -219 -60h-271z" />
<glyph unicode="S" horiz-adv-x="1110" d="M55 -33h160v123q55 -55 123 -88q113 -55 235 -55q201 0 338 119q142 119 142 299t-113 286q-55 51 -155.5 94t-241.5 78q-76 16 -134.5 40t-101.5 52q-76 53 -76 154q0 90 72 150q74 61 189 61q76 0 134 -10t105 -45q23 -18 38 -43t24.5 -51.5t13.5 -50t4 -38.5v-59h174 l-1 25q-1 24 -5 58t-10 71t-19 61q-14 33 -29.5 53.5t-37.5 46.5q-41 43 -80 65.5t-88 45.5q-53 23 -108.5 30t-108.5 7q-182 0 -310 -107q-129 -111 -129 -266q0 -174 111 -272q53 -49 137 -86t195 -66q111 -27 182.5 -55.5t112.5 -58.5q76 -55 75 -158q0 -117 -84 -189 q-85 -75 -210 -75h-3q-147 0 -256 96q-104 96 -104 219v82h-160v-543z" />
<glyph unicode="T" horiz-adv-x="1173" d="M16 920h160v346h336v-1141h-190v-158h370v1299h336v-183h160v340h-1172v-503z" />
<glyph unicode="U" horiz-adv-x="1323" d="M-12 1266h178v-850q0 -227 135 -348q133 -121 375 -121t375 121q133 125 133 348v850h178v157h-358v-125v-899q0 -145 -80 -215q-41 -35 -102.5 -53t-147.5 -18q-162 0 -244 75q-84 72 -84 215v863h176v157h-534v-157z" />
<glyph unicode="V" horiz-adv-x="1343" d="M-78 1266h191l497 -1313h142l481 1313h190v157h-514v-157h156l-375 -1020l-407 1065l-37 112h-324v-157z" />
<glyph unicode="W" horiz-adv-x="1941" d="M-74 1266h183l393 -1313h143l322 1249l344 -1249h139l379 1313h182v157h-514v-157h168l-279 -1002l-284 1043l-33 116h-197l-26 -118l-266 -1039l-299 1041l-31 116h-324v-157z" />
<glyph unicode="X" horiz-adv-x="1343" d="M10 -33h555v158h-155l266 426l309 -492l57 -92h320v158h-209l-379 594l344 547h199v157h-533v-157h146l-254 -398l-283 449l-69 106h-314v-157h207l363 -566l-363 -575h-207v-158z" />
<glyph unicode="Y" horiz-adv-x="1236" d="M-72 1266h195l412 -650v-491h-193v-158h373v125v524l411 650h181v157h-523v-157h154l-303 -478l-342 543h-2l-58 92h-305v-157z" />
<glyph unicode="Z" d="M23 -33h1077v424h-160v-266h-684l823 1165v133h-1011v-157h125h651l-821 -1164v-135z" />
<glyph unicode="[" horiz-adv-x="704" d="M207 -444h500v157h-328v1553h328v157h-500v-1867z" />
<glyph unicode="\" horiz-adv-x="575" d="M-45 1423l502 -1484h164l-502 1484h-164z" />
<glyph unicode="]" horiz-adv-x="704" d="M-2 -287v-157h500l2 1867h-502v-157h328l2 -1553h-330z" />
<glyph unicode="^" horiz-adv-x="1343" d="M180 872l111 -98l381 457l381 -457l110 98l-491 592z" />
<glyph unicode="_" horiz-adv-x="1024" d="M-33 -315v-168h1090v168h-1090z" />
<glyph unicode="`" horiz-adv-x="681" d="M104 1448l293 -383h154l-246 383h-201z" />
<glyph unicode="a" horiz-adv-x="1044" d="M166 47q94 -94 240 -94q92 0 190 43q35 16 65.5 33.5t61.5 40.5v-103h334v158h-162v596q0 154 -107 233q-51 39 -122.5 56.5t-163.5 17.5q-41 0 -91.5 -12t-94.5 -25.5t-74 -26.5l-29 -12l49 -123q12 4 40 13.5t61.5 19.5t69.5 17.5t65 7.5q106 0 170 -41q55 -35 55 -125 v-176q-29 14 -56.5 23.5t-56.5 17.5q-80 18 -143 18q-174 0 -285 -92q-110 -95 -110 -237q0 -130 94 -228zM246 264q0 82 61 137q61 57 178 58q66 0 133 -23q55 -23 105 -49v-147q-53 -55 -133 -97q-86 -43 -160 -43q-86 0 -135 50q-49 51 -49 114z" />
<glyph unicode="b" horiz-adv-x="1259" d="M-4 1266h176v-1174v-125h172v133q31 -33 62.5 -57.5t66.5 -40.5q98 -49 205 -49q236 0 383 153q145 152 145 396q0 231 -145 377q-146 149 -370 149h-3q-111 0 -217 -55q-72 -35 -127 -103v553h-348v-157zM342 494q0 166 102 274q100 106 246 106q150 0 246 -104 q96 -108 96 -272q0 -174 -96 -283q-98 -109 -250 -109q-145 0 -244 105q-49 51 -74.5 120.5t-25.5 162.5z" />
<glyph unicode="c" horiz-adv-x="1044" d="M51 483q0 -238 142 -391t367 -153h3q154 0 273 81q59 41 105 102t85 159l-147 61q-29 -72 -60 -114t-67 -70q-76 -57 -187 -58q-154 0 -246 105q-94 104 -94 278t92 279q88 104 234 104q102 0 190 -65q39 -31 61.5 -84t26.5 -150h152v373h-154v-12q-37 33 -79 55 q-84 45 -197 45q-213 0 -358 -158q-141 -160 -142 -387z" />
<glyph unicode="d" horiz-adv-x="1216" d="M41 483q0 -223 145 -379q146 -151 364 -151h3q117 0 217 51q68 33 125 94v-131h348v158h-176v1298h-172v-125v-428q-59 68 -129 105q-111 53 -219 53q-219 0 -362.5 -155.5t-143.5 -389.5zM207 483q0 166 98 281q99 110 241 110h3q143 0 246 -110q102 -113 102 -275 q0 -168 -96 -276q-98 -106 -248 -107q-145 0 -246 109q-100 111 -100 268z" />
<glyph unicode="e" d="M49 483q0 -238 152 -389q149 -155 378 -155h3q41 0 96 13t106.5 28.5t85.5 29.5l35 13l-43 141q-14 -6 -47 -18.5t-71.5 -24.5t-78.5 -21.5t-67 -9.5q-164 0 -270 111q-88 88 -107 227h875q-8 156 -45 263.5t-109 185.5q-140 151 -364 151h-3q-229 0 -378 -154 q-147 -158 -148 -391zM229 586q25 106 88 176q97 110 247 110h3q143 0 236 -88q77 -79 106 -198h-680z" />
<glyph unicode="f" horiz-adv-x="512" d="M14 844h150v-785h2v-92h360v158h-190v719h190v157h-190v162q0 53 19.5 89t78.5 36q39 0 64 -20q10 -10 21 -32t24 -69l155 25q-10 68 -30.5 109.5t-53.5 74.5q-70 70 -178 70q-119 0 -196 -84q-76 -84 -76 -219v-142h-150v-157z" />
<glyph unicode="g" horiz-adv-x="1216" d="M47 475q0 -223 148 -373q142 -149 361 -149h3q119 0 229 55q70 37 125 98v-139q0 -143 -92 -219q-96 -78 -250 -78q-23 0 -56.5 5.5t-67 11.5t-61.5 12t-40 10l-39 -153l27 -8q28 -7 68 -16t84 -16.5t75 -7.5q229 0 375 127q150 129 149 342v867h179v157h-351v-143 q-70 82 -139 119q-100 51 -213 51q-215 0 -364.5 -161.5t-149.5 -391.5zM221 483q0 164 101 277q97 110 240 110h3q141 0 246 -112q102 -115 102 -275q0 -158 -100 -268q-100 -106 -248 -106q-154 0 -248 104q-96 106 -96 270z" />
<glyph unicode="h" horiz-adv-x="1110" d="M-6 1266h176v-1207h4v-92h328v158h-160v592q35 31 73 56.5t83 47.5q90 45 170 45q135 0 135 -137v-637v-125h327v158h-155v616q0 129 -80 209q-80 78 -213 78q-102 0 -211 -45q-35 -16 -66.5 -34.5t-62.5 -41.5v516h-348v-157z" />
<glyph unicode="i" horiz-adv-x="512" d="M16 844h170v-785h2v-92h336v158h-166v876h-342v-157zM129 1329q0 -49 35 -80q31 -35 80 -35t80 35q34 35 34 82q0 49 -34 80q-31 35 -80 35t-80 -35q-35 -35 -35 -82z" />
<glyph unicode="j" horiz-adv-x="491" d="M-25 -293v-158q26 -2 50 -2q73 0 126 19q70 24 117 67q49 45 71.5 106.5t22.5 139.5v1122h-350v-157h178v-938q0 -106 -46 -156q-40 -44 -137 -44q-15 0 -32 1zM133 1329q0 -49 35 -80q31 -35 80 -35t80 35q34 35 34 82q0 49 -34 80q-31 35 -80 35t-80 -35 q-35 -35 -35 -82z" />
<glyph unicode="k" horiz-adv-x="1067" d="M-6 1266h178v-1207h2v-92h348v158h-178v303l528 -461h254v158h-168l-462 387l487 332h127v157h-174l-60 -41q-61 -42 -151 -103.5t-192.5 -132.5t-188.5 -128v827h-350v-157z" />
<glyph unicode="l" horiz-adv-x="491" d="M-16 1266h176v-1174v-125h346v158h-174v1298h-348v-157z" />
<glyph unicode="m" horiz-adv-x="1728" d="M-8 844h176v-752v-125h332v158h-160v592q35 31 73 56.5t81 47.5q90 45 163 45q70 0 99 -32q16 -16 24 -42t8 -63v-762h173v742q72 68 153 112q88 45 166 45q129 0 129 -137v-637v-125h324v158h-152v616q0 129 -82 209q-80 78 -215 78q-100 0 -215 -59q-41 -23 -77 -44.5 t-64 -45.5q-39 78 -107.5 113.5t-154.5 35.5q-100 0 -203 -45q-66 -31 -123 -74v92h-348v-157z" />
<glyph unicode="n" horiz-adv-x="1087" d="M-16 844h176v-752v-125h329v158h-157v592q35 31 72.5 56.5t80.5 47.5q92 45 170 45q133 0 133 -137v-637v-125h326v158h-153v616q0 129 -80 209q-80 78 -211 78q-100 0 -209 -45q-35 -16 -67 -34.5t-62 -41.5v94h-348v-157z" />
<glyph unicode="o" d="M51 483q0 -231 148 -387q146 -157 365 -157h3q221 0 369 157q147 156 147 387q0 229 -147.5 387t-368.5 158t-368.5 -157.5t-147.5 -387.5zM225 483q0 168 97 277q98 106 245 106t246 -106q96 -109 96 -277t-96 -276q-98 -106 -246 -107q-147 0 -245 107q-96 109 -97 276 z" />
<glyph unicode="p" horiz-adv-x="1216" d="M-25 844h164v-1186v-125h348v158h-176v397q29 -33 58.5 -57.5t64.5 -40.5q100 -51 217 -51q225 0 369 155q141 155 141 395q0 231 -143 383q-143 156 -361 156q-113 0 -215 -51q-70 -33 -131 -105v129h-336v-157zM307 487q0 174 99 279q94 104 241 104q156 0 252 -106 q98 -109 98 -281q0 -170 -96 -276q-94 -106 -248 -107q-147 0 -245 107q-100 106 -101 280z" />
<glyph unicode="q" horiz-adv-x="1216" d="M53 487q0 -242 142 -395t371 -153h3q111 0 217 53q63 31 115 94v-395h-172v-158h344v125v1198h180v158h-352v-137q-55 63 -127 98q-111 53 -215 53q-217 0 -362 -158q-143 -156 -144 -383zM219 485q0 170 98 279q98 106 252 106q145 0 242 -104q47 -53 71.5 -121 t24.5 -158t-25.5 -159.5t-74.5 -122.5q-98 -104 -248 -105q-152 0 -246 106.5t-94 278.5z" />
<glyph unicode="r" horiz-adv-x="811" d="M23 844h184v-752v-125h371v158h-199v401q0 92 23.5 143.5t66.5 90.5t113.5 63.5t173.5 24.5h71v149l-69 2q-35 0 -75 -2t-80 -8t-77 -16t-67 -25q-23 -12 -43.5 -20t-36.5 -29v102h-356v-157z" />
<glyph unicode="s" horiz-adv-x="917" d="M45 -33h160v64q37 -35 86 -58q80 -36 175 -36h5q180 0 287 86q112 87 112 237q0 129 -75 205q-41 41 -117 67.5t-184 47.5q-150 27 -195 57q-18 14 -28.5 34.5t-10.5 55.5q0 59 45 102q49 45 133 45q100 0 166 -59q33 -29 49.5 -71t20.5 -113h153v342h-155v-27 q-49 43 -108.5 62.5t-127.5 19.5q-141 0 -237 -82q-100 -82 -101 -223q0 -143 92 -211q86 -63 267 -94q158 -27 209 -66q23 -16 34 -39.5t11 -62.5q0 -68 -64 -117q-72 -49 -166 -49q-127 0 -200 68q-35 33 -54.5 82t-21.5 135h-160v-402z" />
<glyph unicode="t" horiz-adv-x="532" d="M-27 844h172v-684q0 -100 52 -158q29 -31 68.5 -44t88.5 -13l166 26v160l-149 -25q-18 0 -27.5 4.5t-13.5 8.5q-4 6 -8.5 19.5t-4.5 41.5v664h203v157h-203v220l-172 -2v-218h-172v-157z" />
<glyph unicode="u" horiz-adv-x="1110" d="M-6 844h170v-617q0 -125 76 -200q41 -39 92 -56.5t112 -17.5q113 0 220 47q72 33 122 70v-103h340v158h-168v876h-172v-124v-607q-61 -61 -149 -108q-92 -47 -174 -47q-127 0 -127 131v755h-342v-157z" />
<glyph unicode="v" horiz-adv-x="1067" d="M-37 844h170l342 -891h143l328 891h160v157h-270l-43 -112l-248 -674l-234 629h119v157h-467v-157z" />
<glyph unicode="w" horiz-adv-x="1536" d="M-27 844h136l276 -891h154l219 766l227 -766h148l288 891h146v157h-271l-32 -116l-207 -611l-178 570h96v157h-432v-157h100l-186 -586l-193 629l-33 114h-258v-157z" />
<glyph unicode="x" horiz-adv-x="1087" d="M20 844h142l276 -344l-297 -387l-112 -146h479v158h-156l187 248l256 -314h4l69 -92h215v158h-137l-305 375l270 344h148v157h-422v-157h70l-168 -215l-172 215h79v157h-426v-157z" />
<glyph unicode="y" horiz-adv-x="1087" d="M-29 844h170l336 -817l-176 -494h164l496 1311h157v157h-469v-157h139l-227 -598l-262 643l-43 112h-285v-157z" />
<glyph unicode="z" horiz-adv-x="980" d="M59 -33h865v420h-152v-262h-491l645 741v135h-817v-157h116h477l-643 -740v-137z" />
<glyph unicode="{" horiz-adv-x="681" d="M66 401q68 0 100.5 -16t50.5 -47q41 -70 41 -195v-280q0 -125 61 -213q35 -49 94.5 -71.5t137.5 -22.5h65v161q-72 0 -102.5 9.5t-46.5 25.5q-12 14 -22.5 54t-10.5 116v240q0 156 -59 241q-35 55 -86 86q51 31 86 86q59 86 59 242v240q0 76 10.5 115.5t22.5 54.5 q16 16 47 25.5t102 9.5v161h-65q-78 0 -137.5 -22.5t-94.5 -71.5q-61 -90 -61 -213v-280q0 -125 -41 -195q-18 -31 -51 -47t-100 -16v-177z" />
<glyph unicode="|" horiz-adv-x="1015" d="M422 -492h172v1915h-172v-1915z" />
<glyph unicode="}" horiz-adv-x="681" d="M66 -283v-161h65q78 0 137.5 22.5t93.5 71.5q61 88 62 213v280q0 125 41 195q18 31 50.5 47t100.5 16v177q-68 0 -100.5 16t-50.5 47q-41 70 -41 195v280q0 123 -62 213q-35 49 -94 71.5t-137 22.5h-65v-161q72 0 102.5 -9.5t46.5 -25.5q12 -14 22.5 -54t10.5 -116v-240 q0 -156 59 -242q33 -55 86 -86q-53 -31 -86 -86q-59 -86 -59 -241v-240q0 -76 -10.5 -115.5t-22.5 -54.5q-16 -16 -47 -25.5t-102 -9.5z" />
<glyph unicode="~" horiz-adv-x="1343" d="M102 528q76 59 117 87t74 47q59 33 131 32q35 0 91 -17.5t134 -56t146.5 -59t126.5 -20.5q111 0 192 51q76 45 127 88l-4 186q-78 -53 -121 -80.5t-74 -46.5q-53 -33 -124 -32q-35 0 -90.5 17t-133.5 56q-80 39 -148.5 59.5t-123.5 20.5q-113 0 -195 -51 q-39 -23 -68.5 -44.5t-56.5 -43.5v-193z" />
<glyph unicode="&#xa1;" horiz-adv-x="512" d="M166 743h180v258h-180v-258zM170 20v-475h172v469l-27 619h-118z" />
<glyph unicode="&#xa2;" horiz-adv-x="1044" d="M51 475q0 -236 142 -385q61 -66 155 -108l-117 -449h138l106 412q37 -6 88 -6q154 0 273 81q59 41 105 102t85 159l-147 61q-29 -72 -60 -114t-67 -70q-76 -57 -187 -58h-26t-23 2l182 711q20 -12 41 -29q41 -29 63.5 -82t26.5 -149h152v434h-154v-74q-39 35 -86 60 l111 430h-137l-103 -393q-14 2 -29.5 3t-31.5 1q-215 0 -358 -156q-141 -158 -142 -383zM225 475q0 170 92 275q90 102 234 102h20l-180 -707q-23 12 -40 26.5t-32 31.5q-94 104 -94 272z" />
<glyph unicode="&#xa3;" horiz-adv-x="1067" d="M55 164q0 -92 61.5 -153.5t155.5 -61.5q70 0 136 43q51 37 92 104q72 -66 133 -100q82 -47 160 -47q123 0 196.5 98.5t73.5 241.5v51h-148q-2 -84 -10 -128t-24 -69q-27 -43 -88 -43q-53 0 -111 39q-61 43 -127 105q4 18 6 34.5t4 32.5q6 39 6 92q0 51 -8 103.5 t-24 101.5h223v158h-279q-18 43 -33.5 87t-31.5 89q-31 94 -31 162q0 94 59 141q57 49 150 49q55 0 94 -15t64 -44q27 -31 40 -75t15 -116h166q-2 109 -26.5 179.5t-76.5 122.5q-102 100 -278 100q-174 0 -277 -100q-100 -100 -100 -248q0 -84 29 -180q20 -63 59 -152h-227 v-158h287q10 -25 18 -52.5t18 -55.5q20 -68 21 -135l-2 -23q-33 16 -63.5 25.5t-69.5 9.5q-102 0 -168 -64q-63 -63 -64 -149zM197 158q0 23 7 35t19 22q29 23 66 23q25 0 53 -13q22 -10 47 -28q-23 -49 -49 -76q-33 -33 -70 -33q-33 0 -53 21q-20 18 -20 49z" />
<glyph unicode="&#xa4;" horiz-adv-x="1536" d="M0 485h160q29 -121 90 -220t151.5 -169.5t206 -109.5t254.5 -39q260 0 427 133t265 387l-151 90q-41 -111 -91 -193.5t-114.5 -138t-146.5 -84t-187 -28.5q-98 0 -180 27.5t-148.5 76.5t-113.5 117.5t-74 150.5h791v156h-822q-2 14 -2 27v28q0 20 1 39t3 37h820v156h-785 q55 158 183.5 255t318.5 97q82 0 161 -22.5t145.5 -68.5t112.5 -114.5t64 -161.5h156v387h-160v-49q-94 94 -217 144.5t-258 50.5q-133 0 -246.5 -38t-202.5 -105.5t-152.5 -163t-94.5 -211.5h-164v-156h137q-2 -18 -2 -37v-39v-28q0 -12 2 -27h-137v-156z" />
<glyph unicode="&#xa5;" d="M-33 594h506l2 -6v-463h-192v-158h571v158h-199v469h504v158h-428l88 180h340v158h-262l86 176h182v157h-526v-157h162l-86 -176h-154h-117l-79 176h163v157h-561v-157h193l82 -176h-275v-158h348l84 -180h-432v-158zM518 932h43h78l-64 -127z" />
<glyph unicode="&#xa6;" horiz-adv-x="1015" d="M422 317v-809h172v809h-172zM422 612h172v811h-172v-811z" />
<glyph unicode="&#xa7;" horiz-adv-x="897" d="M0 545q0 -127 76 -215q78 -84 231 -152l166 -72q117 -51 170 -110q47 -53 47 -125q0 -92 -67 -137q-74 -49 -150 -49q-100 0 -168 55q-33 25 -52.5 70t-25.5 131h-159q6 -121 37.5 -197t95.5 -123q123 -88 262 -88q80 0 149.5 21.5t126.5 68.5q115 92 115 256 q0 78 -35 152q-29 61 -82 108q68 53 107 121q51 84 51 174q0 127 -76 215q-78 84 -231 152l-166 71q-117 51 -170 111q-47 53 -47 125q0 90 67 137q74 49 150 49q100 0 168 -55q33 -25 52.5 -70t25.5 -131h161q-8 121 -39.5 197t-95.5 123q-123 88 -262 88 q-80 0 -149.5 -21.5t-126.5 -68.5q-115 -92 -115 -256q0 -78 35 -152q29 -61 82 -108q-68 -53 -107 -121q-51 -90 -51 -174zM164 561q0 66 37 119q33 49 82 82l276 -127q55 -25 89 -48.5t50 -45.5q33 -45 33 -119q0 -66 -37 -121q-35 -51 -82 -80l-276 125q-55 25 -89 49.5 t-50 46.5q-33 45 -33 119z" />
<glyph unicode="&#xa8;" horiz-adv-x="681" d="M66 1155h196v197h-196v-197zM420 1155h196v197h-196v-197z" />
<glyph unicode="&#xa9;" horiz-adv-x="1642" d="M25 727q0 -332 233 -561q229 -233 563 -234q330 0 561 234q234 229 234 563q0 330 -234 561q-231 233 -563 234q-332 0 -561 -234q-233 -231 -233 -563zM186 729q0 260 187 447q184 186 448 186q260 0 447 -186q186 -185 186 -449q0 -260 -186 -446q-184 -186 -449 -187 q-260 0 -446 187q-186 184 -187 448zM412 727q0 -207 118.5 -338t298.5 -131q127 0 226 74q49 39 84.5 95t62.5 146l-151 56q-23 -70 -44.5 -107t-50.5 -61q-57 -47 -131 -47q-115 0 -176 90q-66 94 -65 235q0 123 67 209q63 80 185 80q72 0 118 -41q25 -23 44.5 -52.5 t37.5 -80.5l164 49q-31 61 -63.5 110.5t-75.5 85.5t-97.5 55.5t-125.5 19.5q-199 0 -314 -127q-113 -125 -112 -320z" />
<glyph unicode="&#xaa;" horiz-adv-x="681" d="M41 1257l119 -28q16 35 29.5 52t33.5 28q33 25 111 24q70 0 104 -22q31 -18 31 -64v-86q-31 12 -61 19q-27 4 -49.5 7t-45.5 3q-119 0 -190 -57q-78 -59 -78 -154q0 -84 66 -145q66 -59 163 -60q49 0 100.5 17.5t94.5 42.5v-52h240v121h-105v344q0 61 -24.5 100t-63.5 61 t-87 30t-93 8q-53 0 -97 -9.5t-79 -32t-62.5 -54t-56.5 -93.5zM182 973q0 45 35 74q37 31 109 30q41 0 84 -12q16 -6 30.5 -12t28.5 -13v-73q-33 -33 -80 -54q-53 -25 -98 -24q-51 0 -82 26q-27 27 -27 58z" />
<glyph unicode="&#xab;" horiz-adv-x="960" d="M23 489l333 -522h191l-332 522l332 523h-191zM459 489l334 -522h190l-332 522l332 523h-190z" />
<glyph unicode="&#xac;" horiz-adv-x="2070" d="M-18 592l90 -90l82 82l342 -342l65 -66l172 170l-90 90l-74 -76l-266 265q4 29 8 56.5t15 55.5q20 61 53 94q16 16 29.5 21.5t23.5 5.5q27 0 55 -29l365 -364l96 96l-350 350q0 63 18 117q18 59 54 94q29 29 54.5 27t53.5 -31l219 -219v-807v-125h373v158h-192v537 l534 -592l90 -103h279v158h-168l-561 614l532 527h168v157h-237l-101 -102l-407 -399l-129 -109v156v297h190v157h-555v-157h184v-174l-129 129q-63 63 -143 61q-78 0 -145 -68q-47 -47 -76 -131q-8 -27 -13.5 -51t-9.5 -47q-53 16 -101 -1t-89 -58q-25 -25 -43.5 -54.5 t-32.5 -64.5q-12 -37 -18 -74l-37 37zM907 -303q0 -80 58 -141q61 -57 141 -58q78 0 139 58q58 61 58 141q0 82 -57.5 139.5t-141.5 57.5q-82 0 -139.5 -57.5t-57.5 -139.5z" />
<glyph unicode="&#xad;" horiz-adv-x="704" d="M37 481h627v158h-627v-158z" />
<glyph unicode="&#xae;" horiz-adv-x="1642" d="M25 727q0 -332 233 -561q229 -233 563 -234q330 0 561 234q234 229 234 563q0 330 -234 561q-231 233 -563 234q-332 0 -561 -234q-233 -231 -233 -563zM186 729q0 260 187 447q184 186 448 186q260 0 447 -186q186 -185 186 -449q0 -260 -186 -446q-184 -186 -449 -187 q-260 0 -446 187q-186 184 -187 448zM479 285h172v348h33q109 0 164 -49q29 -23 67.5 -93.5t94.5 -205.5h196q-53 123 -88 191.5t-59 109.5q-31 47 -78 80q61 20 106 65q70 72 70 176q0 98 -74 172q-39 39 -97 56.5t-132 17.5h-375v-868zM651 782v224h142q51 0 86.5 -7.5 t58.5 -17.5q18 -10 28.5 -27.5t10.5 -50.5q0 -57 -35 -88q-16 -14 -55 -23.5t-105 -9.5h-131z" />
<glyph unicode="&#xaf;" horiz-adv-x="681" d="M-20 1196h722v125h-722v-125z" />
<glyph unicode="&#xb0;" horiz-adv-x="811" d="M84 1124q0 -129 94 -227q98 -94 228 -94q129 0 227 94q94 98 94 227t-94 228q-98 94 -227 94t-228 -94q-94 -98 -94 -228zM231 1124q0 74 52 123q49 51 123 51t122 -51q52 -49 52 -123t-52 -123q-49 -51 -122 -51q-74 0 -123 51q-51 49 -52 123z" />
<glyph unicode="&#xb1;" horiz-adv-x="1366" d="M113 -33h1138v156h-1138v-156zM113 739h491v-493h156v493h491v156h-491v494h-156v-494h-491v-156z" />
<glyph unicode="&#xb2;" horiz-adv-x="661" d="M16 692l7 -45h565l12 291h-121l-6 -178h-315q14 45 55 96q51 61 190 133q94 45 140 101q45 57 45 137q0 100 -76 162q-72 59 -190 59q-127 0 -205 -72q-78 -70 -78 -188v-49h125v45q0 70 39 112q18 18 47 29.5t74 11.5q59 0 98 -32q35 -31 35 -78t-29 -80 q-31 -31 -106 -72q-84 -43 -143.5 -91t-94.5 -101q-33 -53 -50.5 -99.5t-17.5 -91.5z" />
<glyph unicode="&#xb3;" horiz-adv-x="661" d="M18 936q4 -86 29 -139.5t70 -87.5q45 -37 99 -54.5t116 -17.5q131 0 215 65q90 73 90 179q0 92 -62 147q-31 27 -67 43q80 57 80 156q0 98 -76 159q-74 61 -182 62q-53 0 -100.5 -14.5t-82.5 -44.5q-37 -31 -56 -77t-23 -124h129q2 57 10 81.5t24 37.5q33 31 95 30 q59 0 96 -30q35 -29 35 -78q0 -53 -41 -82q-45 -35 -111 -35l-57 6v-121l90 7q41 4 71.5 -7.5t55.5 -27.5q43 -35 43 -88q0 -55 -47 -95q-49 -39 -127 -38q-80 0 -129 43q-25 23 -40 54.5t-24 90.5h-123z" />
<glyph unicode="&#xb4;" horiz-adv-x="681" d="M131 1065h154l293 383h-201z" />
<glyph unicode="&#xb5;" d="M10 844h170v-1311h166v455q57 -35 129 -35q106 0 207 47q57 27 111 66v-99h340v158h-168v876h-340v-157h168v-574q-61 -61 -149.5 -108t-168.5 -47q-63 0 -92 32q-14 16 -22.5 40t-8.5 59v755h-342v-157z" />
<glyph unicode="&#xb6;" horiz-adv-x="1323" d="M63 965q0 -190 132 -322q121 -121 317 -131v-979h197v1688h200v-1688h197v1688h192v202h-727q-227 0 -366 -125q-141 -127 -142 -333z" />
<glyph unicode="&#xb7;" horiz-adv-x="598" d="M176 555h180v197h-180v-197z" />
<glyph unicode="&#xb8;" horiz-adv-x="681" d="M115 -334v-133h61q158 0 248 51q98 55 98 174q0 82 -51 133q-41 39 -92 50l14 77h-131l-41 -215q55 0 78 -5t35 -13q20 -14 20 -41q0 -37 -35 -57q-23 -12 -44 -17.5t-44 -7.5q-25 -2 -51 0t-65 4z" />
<glyph unicode="&#xb9;" horiz-adv-x="661" d="M143 647h377v113h-121v676h-254v-113h121v-563h-123v-113z" />
<glyph unicode="&#xba;" horiz-adv-x="724" d="M18 1106q0 -147 99 -242q98 -98 248 -98t247 98q99 95 99 242q0 143 -98.5 241.5t-247.5 98.5q-150 0 -248.5 -98.5t-98.5 -241.5zM154 1106q0 94 59 154q57 61 152 61q92 0 151 -61q59 -60 59 -154q0 -96 -59 -156q-59 -61 -151 -61q-94 0 -152 61q-59 59 -59 156z" />
<glyph unicode="&#xbb;" horiz-adv-x="960" d="M-20 -33h190l334 522l-334 523h-190l331 -523zM416 -33h190l334 522l-334 523h-190l332 -523z" />
<glyph unicode="&#xbc;" horiz-adv-x="1728" d="M145 647h377v113h-121v676h-254v-113h121v-563h-123v-113zM193 -33h151l1028 1456h-151zM846 246q29 -18 34 -22.5t7 -6.5t4 -9t12 -30h322v-98h-97v-113h295v113h-75v98h139v109h-139v475h-107zM1018 287l207 276v-276h-207z" />
<glyph unicode="&#xbd;" horiz-adv-x="1728" d="M143 647h377v113h-121v676h-254v-113h121v-563h-123v-113zM190 -33h152l1028 1456h-151zM987 12l6 -45h566l12 291h-121l-6 -178h-316q14 45 56 96q51 61 190 133q94 45 139 101q45 57 46 137q0 100 -76 162q-72 59 -191 59q-127 0 -205 -72q-78 -70 -77 -188v-49h125v45 q0 70 39 112q18 18 46.5 29.5t73.5 11.5q59 0 99 -32q35 -31 34 -78q0 -47 -28 -80q-31 -31 -107 -72q-84 -43 -143 -91t-94 -101q-33 -53 -50.5 -99.5t-17.5 -91.5z" />
<glyph unicode="&#xbe;" horiz-adv-x="1728" d="M94 936q4 -86 28.5 -139.5t70.5 -87.5q45 -37 99 -54.5t116 -17.5q131 0 215 65q90 73 90 179q0 92 -62 147q-31 27 -67 43q80 57 80 156q0 98 -76 159q-74 61 -182 62q-53 0 -100.5 -14.5t-82.5 -44.5q-37 -31 -56.5 -77t-23.5 -124h129q2 57 10.5 81.5t24.5 37.5 q33 31 94 30q59 0 97 -30q35 -29 34 -78q0 -53 -40 -82q-45 -35 -111 -35l-57 6v-121l90 7q41 4 71.5 -7.5t55.5 -27.5q43 -35 43 -88q0 -55 -47 -95q-49 -39 -127 -38q-80 0 -129 43q-25 23 -40.5 54.5t-23.5 90.5h-123zM344 -33h152l1028 1456h-152zM995 246 q29 -18 34 -22.5t7 -6.5t4 -9t13 -30h321v-98h-96v-113h295v113h-76v98h139v109h-139v475h-106zM1167 287l207 276v-276h-207z" />
<glyph unicode="&#xbf;" horiz-adv-x="917" d="M53 -66q0 -154 109 -280q113 -129 307 -129q98 0 177 29.5t134 93.5q53 61 81 136.5t28 184.5h-162q0 -86 -17.5 -135t-52.5 -84q-68 -68 -178 -67q-117 0 -186 73q-72 76 -72 176q0 72 22.5 118t63.5 75q33 20 74 31.5t92 11.5q29 0 82 -6l47 16l-41 449h-110l-25 -297 q-172 -4 -272.5 -119t-100.5 -277zM420 745h180v259h-180v-259z" />
<glyph unicode="&#xc0;" horiz-adv-x="1343" d="M-80 -33h356v125l138 404h516l129 -371h-160v-158h526v158h-182l-399 1141h160v157h-451l-37 -114l-410 -1184h-186v-158zM436 1864l293 -383h154l-246 383h-201zM469 653l205 594l203 -594h-408z" />
<glyph unicode="&#xc1;" horiz-adv-x="1343" d="M-80 -33h356v125l138 404h516l129 -371h-160v-158h526v158h-182l-399 1141h160v157h-451l-37 -114l-410 -1184h-186v-158zM463 1481h153l293 383h-200zM469 653l205 594l203 -594h-408z" />
<glyph unicode="&#xc2;" horiz-adv-x="1343" d="M-80 -33h356v125l138 404h516l129 -371h-160v-158h526v158h-182l-399 1141h160v157h-451l-37 -114l-410 -1184h-186v-158zM301 1489h154l217 201l219 -201h153l-296 362h-152zM469 653l205 594l203 -594h-408z" />
<glyph unicode="&#xc3;" horiz-adv-x="1343" d="M-80 -33h356v125l138 404h516l129 -371h-160v-158h526v158h-182l-399 1141h160v157h-451l-37 -114l-410 -1184h-186v-158zM297 1548h123q16 43 28.5 60.5t22.5 23.5q20 14 47 15q18 0 50 -10.5t79 -37.5q96 -53 178 -53q68 0 125 51q29 25 51.5 69t49.5 126h-125 q-16 -43 -27.5 -60.5t-21.5 -23.5q-20 -14 -48 -14q-20 0 -52 10t-77 37q-100 53 -178 53q-68 0 -125 -51q-29 -25 -51 -69t-49 -126zM469 653l205 594l203 -594h-408z" />
<glyph unicode="&#xc4;" horiz-adv-x="1343" d="M-80 -33h356v125l138 404h516l129 -371h-160v-158h526v158h-182l-399 1141h160v157h-451l-37 -114l-410 -1184h-186v-158zM397 1571h197v196h-197v-196zM469 653l205 594l203 -594h-408zM752 1571h196v196h-196v-196z" />
<glyph unicode="&#xc5;" horiz-adv-x="1343" d="M-80 -33h356v125l138 404h516l129 -371h-160v-158h526v158h-182l-399 1141h160v157h-451l-37 -114l-410 -1184h-186v-158zM453 1669q0 -92 63 -156q66 -66 156 -65q90 0 155.5 65.5t65.5 155.5t-65.5 155.5t-155.5 65.5t-156 -65q-63 -63 -63 -156zM469 653l205 594 l203 -594h-408zM580 1669q0 41 26.5 67.5t65.5 26.5q41 0 67.5 -26.5t26.5 -67.5t-26.5 -67.5t-67.5 -26.5q-39 0 -65.5 26.5t-26.5 67.5z" />
<glyph unicode="&#xc6;" horiz-adv-x="1921" d="M-78 -33h410v158h-139l282 510h381v-510h-231v-158h1237v408h-160v-250h-666v508h582v158h-582v475h699h125v157h-1436v-157h207q-61 -113 -138 -252.5t-155 -283.5t-153.5 -281.5t-133 -244t-93.5 -172.5zM559 793l260 473h37v-473h-297z" />
<glyph unicode="&#xc7;" horiz-adv-x="1536" d="M94 696q0 -336 201 -542q160 -162 395 -199l-28 -152q55 0 77.5 -5t34.5 -13q20 -14 21 -41q0 -37 -35 -57q-23 -12 -44.5 -17.5t-43.5 -7.5q-25 -2 -51.5 0t-65.5 4v-133h61q158 0 248 51q98 55 99 174q0 82 -52 133q-41 39 -92 50l2 6q223 -2 406 116 q90 59 159.5 156.5t126.5 247.5l-151 90q-53 -141 -107.5 -223t-117.5 -127q-131 -94 -314 -94q-240 0 -393 163q-156 162 -156 420t152 422q152 162 389 162q168 0 309 -92q70 -45 112 -109.5t62 -165.5h156v387h-160v-49q-88 88 -192 133q-141 61 -283 62 q-319 0 -524 -209q-201 -213 -201 -541z" />
<glyph unicode="&#xc8;" horiz-adv-x="1236" d="M-2 1266h178v-1174v-125h1002v158h-127h-695v508h578v158h-578v475h662v-246h158v403h-1178v-157zM383 1864l293 -383h153l-245 383h-201z" />
<glyph unicode="&#xc9;" horiz-adv-x="1236" d="M-2 1266h178v-1174v-125h1002v158h-127h-695v508h578v158h-578v475h662v-246h158v403h-1178v-157zM410 1481h153l293 383h-201z" />
<glyph unicode="&#xca;" horiz-adv-x="1236" d="M-2 1266h178v-1174v-125h1002v158h-127h-695v508h578v158h-578v475h662v-246h158v403h-1178v-157zM248 1489h153l217 201l220 -201h153l-297 362h-151z" />
<glyph unicode="&#xcb;" horiz-adv-x="1236" d="M-2 1266h178v-1174v-125h1002v158h-127h-695v508h578v158h-578v475h662v-246h158v403h-1178v-157zM344 1571h197v196h-197v-196zM698 1571h197v196h-197v-196z" />
<glyph unicode="&#xcc;" horiz-adv-x="575" d="M23 -33h530v158h-176v1173v125h-180v-125v-1173h-174v-158zM51 1864l156 -205l133 -178h35h123l-246 383h-201z" />
<glyph unicode="&#xcd;" horiz-adv-x="575" d="M23 -33h530v158h-176v1173v125h-180v-125v-1173h-174v-158zM78 1481h164q39 51 72.5 97t66.5 92t67.5 93.5t75.5 100.5h-200z" />
<glyph unicode="&#xce;" horiz-adv-x="575" d="M-84 1489h154l125 115l92 86l22 -23l66 -57l131 -121h153l-297 362h-151zM23 -33h530v158h-176v1173v125h-180v-125v-1173h-174v-158z" />
<glyph unicode="&#xcf;" horiz-adv-x="575" d="M12 1571h183h14v196h-197v-196zM23 -33h530v158h-176v1173v125h-180v-125v-1173h-174v-158zM367 1571h8h188v196h-196v-196z" />
<glyph unicode="&#xd0;" horiz-adv-x="1449" d="M-16 1270l192 4v-498h-190v-158h190v-526v-125h434q211 0 362.5 54.5t241.5 166.5q172 217 172 506q0 324 -190 527q-195 203 -584 202h-628v-153zM356 125v493h428v158h-428v490h267q281 0 432 -148t151 -424q0 -145 -36.5 -249.5t-108.5 -176.5q-147 -143 -434 -143 h-271z" />
<glyph unicode="&#xd1;" horiz-adv-x="1449" d="M-12 1266h186v-1174v-125h358v158h-196v1030l786 -1206h160v1317h180v157h-342v-125v-1034q-86 135 -171 265t-171 259q-102 152 -202.5 307.5t-208.5 327.5h-379v-157zM350 1548h123q16 43 28.5 60.5t22.5 23.5q20 14 47 15q18 0 50 -10.5t79 -37.5q96 -53 179 -53 q68 0 125 51q29 25 51 69t49 126h-125q-16 -43 -27.5 -60.5t-21.5 -23.5q-20 -14 -47 -14q-20 0 -52 10t-77 37q-100 53 -179 53q-68 0 -124 -51q-29 -25 -51.5 -69t-49.5 -126z" />
<glyph unicode="&#xd2;" horiz-adv-x="1599" d="M70 696q0 -322 209 -536q207 -213 524 -213t524 213q209 214 209 536t-209 537q-207 213 -524 213t-524 -213q-209 -215 -209 -537zM250 696q0 254 158 418q154 166 395 166q240 0 397 -164q156 -168 156 -420t-156 -420q-158 -164 -397 -163q-242 0 -395 166 q-158 164 -158 417zM563 1864l293 -383h154l-246 383h-201z" />
<glyph unicode="&#xd3;" horiz-adv-x="1599" d="M70 696q0 -322 209 -536q207 -213 524 -213t524 213q209 214 209 536t-209 537q-207 213 -524 213t-524 -213q-209 -215 -209 -537zM250 696q0 254 158 418q154 166 395 166q240 0 397 -164q156 -168 156 -420t-156 -420q-158 -164 -397 -163q-242 0 -395 166 q-158 164 -158 417zM590 1481h153l293 383h-200z" />
<glyph unicode="&#xd4;" horiz-adv-x="1599" d="M70 696q0 -322 209 -536q207 -213 524 -213t524 213q209 214 209 536t-209 537q-207 213 -524 213t-524 -213q-209 -215 -209 -537zM250 696q0 254 158 418q154 166 395 166q240 0 397 -164q156 -168 156 -420t-156 -420q-158 -164 -397 -163q-242 0 -395 166 q-158 164 -158 417zM428 1489h154l217 201l219 -201h153l-297 362h-151z" />
<glyph unicode="&#xd5;" horiz-adv-x="1599" d="M70 696q0 -322 209 -536q207 -213 524 -213t524 213q209 214 209 536t-209 537q-207 213 -524 213t-524 -213q-209 -215 -209 -537zM250 696q0 254 158 418q154 166 395 166q240 0 397 -164q156 -168 156 -420t-156 -420q-158 -164 -397 -163q-242 0 -395 166 q-158 164 -158 417zM424 1548h123q16 43 28.5 60.5t22.5 23.5q20 14 47 15q18 0 50 -10.5t79 -37.5q96 -53 178 -53q68 0 125 51q29 25 51.5 69t49.5 126h-125q-16 -43 -27.5 -60.5t-21.5 -23.5q-20 -14 -48 -14q-20 0 -52 10t-77 37q-100 53 -178 53q-68 0 -125 -51 q-29 -25 -51 -69t-49 -126z" />
<glyph unicode="&#xd6;" horiz-adv-x="1599" d="M70 696q0 -322 209 -536q207 -213 524 -213t524 213q209 214 209 536t-209 537q-207 213 -524 213t-524 -213q-209 -215 -209 -537zM250 696q0 254 158 418q154 166 395 166q240 0 397 -164q156 -168 156 -420t-156 -420q-158 -164 -397 -163q-242 0 -395 166 q-158 164 -158 417zM524 1571h197v196h-197v-196zM879 1571h196v196h-196v-196z" />
<glyph unicode="&#xd7;" horiz-adv-x="1368" d="M147 233l115 -114l422 422l422 -422l115 114l-422 422l422 422l-115 115l-422 -422l-422 422l-115 -115l422 -422z" />
<glyph unicode="&#xd8;" horiz-adv-x="1599" d="M70 696q0 -154 46 -283.5t142 -234.5l-129 -145l102 -92l129 145q176 -139 443 -139q317 0 524 213q209 214 209 536q0 141 -43 266t-147 248l133 148l-103 92l-129 -147q-180 143 -444 143q-317 0 -524 -213q-209 -215 -209 -537zM250 696q0 254 158 418 q154 166 395 166q203 0 330 -106l-758 -863q-125 160 -125 385zM473 217l758 862q125 -160 125 -383q0 -252 -156 -420q-158 -164 -397 -163q-199 0 -330 104z" />
<glyph unicode="&#xd9;" horiz-adv-x="1323" d="M-27 1266h179v-850q0 -227 135 -348q133 -121 375 -121t374 121q133 125 133 348v850h179v157h-359v-125v-899q0 -145 -80 -215q-41 -35 -102.5 -53t-147.5 -18q-162 0 -243 75q-84 72 -84 215v863h176v157h-535v-157zM426 1864l293 -383h153l-245 383h-201z" />
<glyph unicode="&#xda;" horiz-adv-x="1323" d="M-27 1266h179v-850q0 -227 135 -348q133 -121 375 -121t374 121q133 125 133 348v850h179v157h-359v-125v-899q0 -145 -80 -215q-41 -35 -102.5 -53t-147.5 -18q-162 0 -243 75q-84 72 -84 215v863h176v157h-535v-157zM453 1481h153l293 383h-201z" />
<glyph unicode="&#xdb;" horiz-adv-x="1323" d="M-27 1266h179v-850q0 -227 135 -348q133 -121 375 -121t374 121q133 125 133 348v850h179v157h-359v-125v-899q0 -145 -80 -215q-41 -35 -102.5 -53t-147.5 -18q-162 0 -243 75q-84 72 -84 215v863h176v157h-535v-157zM291 1489h153l218 201l219 -201h153l-297 362h-151z " />
<glyph unicode="&#xdc;" horiz-adv-x="1323" d="M-27 1266h179v-850q0 -227 135 -348q133 -121 375 -121t374 121q133 125 133 348v850h179v157h-359v-125v-899q0 -145 -80 -215q-41 -35 -102.5 -53t-147.5 -18q-162 0 -243 75q-84 72 -84 215v863h176v157h-535v-157zM387 1468h197v197h-197v-197zM741 1468h197v197 h-197v-197z" />
<glyph unicode="&#xdd;" horiz-adv-x="1236" d="M-72 1266h195l412 -650v-491h-193v-158h373v125v524l411 650h181v157h-523v-157h154l-303 -478l-342 543h-2l-58 92h-305v-157zM410 1481h153l293 383h-201z" />
<glyph unicode="&#xde;" d="M0 -33h365v125v162h284q213 0 344 119q131 122 131 321q0 209 -139 328q-135 115 -371 115h-249v129h186v157h-551v-157h184v-1141h-184v-158zM365 412v567h243q182 0 258 -70q37 -33 57.5 -88t20.5 -139q0 -137 -82 -201q-43 -35 -105.5 -52t-148.5 -17h-243z" />
<glyph unicode="&#xdf;" horiz-adv-x="1259" d="M0 -33h346v125v944q0 72 19.5 119t54.5 76q39 31 90 47t119 16q115 0 200 -55q80 -53 80 -160q0 -100 -59 -149q-59 -53 -162 -53h-53v-148q119 0 190.5 -21.5t118.5 -62.5q94 -78 94 -237q0 -127 -69 -215q-68 -88 -183 -89q-18 0 -34.5 1t-28.5 4q-12 4 -28.5 9 t-59.5 21v-168l143 -18q203 0 318 135q110 136 110 322q0 90 -23.5 163.5t-72.5 131.5q-66 74 -162 112q57 35 84 86q47 82 47 168q0 170 -125 275q-121 100 -323 100q-205 0 -328 -105q-66 -53 -97.5 -136t-31.5 -193v-887h-174v-158z" />
<glyph unicode="&#xe0;" horiz-adv-x="1044" d="M72 272q0 -127 94 -225q94 -94 240 -94q92 0 190 43q35 16 65.5 33.5t61.5 40.5v-103h334v158h-162v596q0 154 -107 233q-51 39 -122.5 56.5t-163.5 17.5q-41 0 -91.5 -12t-94.5 -25.5t-74 -26.5l-29 -12l49 -123q12 4 40 13.5t61.5 19.5t69.5 17.5t65 7.5q106 0 170 -41 q55 -35 55 -125v-176q-29 14 -56.5 23.5t-56.5 17.5q-80 18 -143 18q-174 0 -285 -92q-111 -96 -110 -240zM246 264q0 82 61 137q61 57 178 58q66 0 133 -23q55 -23 105 -49v-147q-53 -55 -133 -97q-86 -43 -160 -43q-86 0 -135 50q-49 51 -49 114zM287 1448l293 -383h153 l-246 383h-200z" />
<glyph unicode="&#xe1;" horiz-adv-x="1044" d="M72 272q0 -127 94 -225q94 -94 240 -94q92 0 190 43q35 16 65.5 33.5t61.5 40.5v-103h334v158h-162v596q0 154 -107 233q-51 39 -122.5 56.5t-163.5 17.5q-41 0 -91.5 -12t-94.5 -25.5t-74 -26.5l-29 -12l49 -123q12 4 40 13.5t61.5 19.5t69.5 17.5t65 7.5q106 0 170 -41 q55 -35 55 -125v-176q-29 14 -56.5 23.5t-56.5 17.5q-80 18 -143 18q-174 0 -285 -92q-111 -96 -110 -240zM246 264q0 82 61 137q61 57 178 58q66 0 133 -23q55 -23 105 -49v-147q-53 -55 -133 -97q-86 -43 -160 -43q-86 0 -135 50q-49 51 -49 114zM313 1065h154l293 383 h-201z" />
<glyph unicode="&#xe2;" horiz-adv-x="1044" d="M72 272q0 -127 94 -225q94 -94 240 -94q92 0 190 43q35 16 65.5 33.5t61.5 40.5v-103h334v158h-162v596q0 154 -107 233q-51 39 -122.5 56.5t-163.5 17.5q-41 0 -91.5 -12t-94.5 -25.5t-74 -26.5l-29 -12l49 -123q12 4 40 13.5t61.5 19.5t69.5 17.5t65 7.5q106 0 170 -41 q55 -35 55 -125v-176q-29 14 -56.5 23.5t-56.5 17.5q-80 18 -143 18q-174 0 -285 -92q-111 -96 -110 -240zM152 1073h153l217 201l219 -201h154l-297 363h-152zM246 264q0 82 61 137q61 57 178 58q66 0 133 -23q55 -23 105 -49v-147q-53 -55 -133 -97q-86 -43 -160 -43 q-86 0 -135 50q-49 51 -49 114z" />
<glyph unicode="&#xe3;" horiz-adv-x="1044" d="M72 272q0 -127 94 -225q94 -94 240 -94q92 0 190 43q35 16 65.5 33.5t61.5 40.5v-103h334v158h-162v596q0 154 -107 233q-51 39 -122.5 56.5t-163.5 17.5q-41 0 -91.5 -12t-94.5 -25.5t-74 -26.5l-29 -12l49 -123q12 4 40 13.5t61.5 19.5t69.5 17.5t65 7.5q106 0 170 -41 q55 -35 55 -125v-176q-29 14 -56.5 23.5t-56.5 17.5q-80 18 -143 18q-174 0 -285 -92q-111 -96 -110 -240zM147 1133h123q16 43 28.5 60t23.5 24q20 14 47 14q18 0 50 -10.5t79 -36.5q96 -53 178 -54q68 0 125 52q29 25 51 68.5t49 125.5h-125q-16 -43 -27.5 -60.5 t-21.5 -23.5q-20 -14 -47 -14q-20 0 -52 10t-77 37q-100 53 -178 53q-68 0 -125 -51q-29 -25 -51.5 -69t-49.5 -125zM246 264q0 82 61 137q61 57 178 58q66 0 133 -23q55 -23 105 -49v-147q-53 -55 -133 -97q-86 -43 -160 -43q-86 0 -135 50q-49 51 -49 114z" />
<glyph unicode="&#xe4;" horiz-adv-x="1044" d="M72 272q0 -127 94 -225q94 -94 240 -94q92 0 190 43q35 16 65.5 33.5t61.5 40.5v-103h334v158h-162v596q0 154 -107 233q-51 39 -122.5 56.5t-163.5 17.5q-41 0 -91.5 -12t-94.5 -25.5t-74 -26.5l-29 -12l49 -123q12 4 40 13.5t61.5 19.5t69.5 17.5t65 7.5q106 0 170 -41 q55 -35 55 -125v-176q-29 14 -56.5 23.5t-56.5 17.5q-80 18 -143 18q-174 0 -285 -92q-111 -96 -110 -240zM246 264q0 82 61 137q61 57 178 58q66 0 133 -23q55 -23 105 -49v-147q-53 -55 -133 -97q-86 -43 -160 -43q-86 0 -135 50q-49 51 -49 114zM248 1155h196v197h-196 v-197zM602 1155h197v197h-197v-197z" />
<glyph unicode="&#xe5;" horiz-adv-x="1044" d="M72 272q0 -127 94 -225q94 -94 240 -94q92 0 190 43q35 16 65.5 33.5t61.5 40.5v-103h334v158h-162v596q0 154 -107 233q-51 39 -122.5 56.5t-163.5 17.5q-41 0 -91.5 -12t-94.5 -25.5t-74 -26.5l-29 -12l49 -123q12 4 40 13.5t61.5 19.5t69.5 17.5t65 7.5q106 0 170 -41 q55 -35 55 -125v-176q-29 14 -56.5 23.5t-56.5 17.5q-80 18 -143 18q-174 0 -285 -92q-111 -96 -110 -240zM246 264q0 82 61 137q61 57 178 58q66 0 133 -23q55 -23 105 -49v-147q-53 -55 -133 -97q-86 -43 -160 -43q-86 0 -135 50q-49 51 -49 114zM303 1253q0 -92 64 -155 q66 -66 155 -66q90 0 155.5 65.5t65.5 155.5t-65.5 156t-155.5 66t-155 -66q-63 -63 -64 -156zM430 1253q0 41 26.5 68t65.5 27q41 0 67.5 -27t26.5 -68t-26.5 -67.5t-67.5 -26.5q-39 0 -65.5 26.5t-26.5 67.5z" />
<glyph unicode="&#xe6;" horiz-adv-x="1771" d="M78 272q0 -133 98 -225q100 -94 252 -94t258 70q41 27 79 55t69 63q78 -102 174 -147q111 -55 237 -55q39 0 93.5 13t103.5 30.5t84 31.5l35 13l-88 135q-10 -4 -37 -16.5t-60 -24.5t-67.5 -21.5t-61.5 -9.5q-162 0 -262 111q-88 94 -102 227h852q-8 145 -44 249.5 t-102 186.5q-135 164 -350 164q-131 0 -238 -57q-84 -47 -145 -125q-23 53 -60.5 89t-85.5 56.5t-101.5 28.5t-106.5 8q-80 0 -148.5 -18.5t-140.5 -67.5l86 -117q49 35 95 48.5t104 13.5q109 0 168 -41q25 -16 39 -47t14 -78v-176q-29 14 -55.5 23.5t-55.5 17.5 q-78 18 -141 18q-172 0 -279 -92q-111 -96 -110 -240zM252 264q0 82 59 137q31 29 74 43.5t102 14.5q61 0 129 -23q29 -10 53.5 -22.5t49.5 -26.5v-147q-55 -57 -131 -97q-84 -43 -158 -43q-86 0 -131 50q-47 49 -47 114zM891 586q25 111 84 178q96 109 242 108 q141 0 229 -88q78 -83 98 -198h-653z" />
<glyph unicode="&#xe7;" horiz-adv-x="1044" d="M51 483q0 -238 142 -391q102 -109 243 -139l-28 -150q55 0 77.5 -5t34.5 -13q20 -14 21 -41q0 -37 -35 -57q-23 -12 -44.5 -17.5t-43.5 -7.5q-25 -2 -51.5 0t-65.5 4v-133h61q158 0 248 51q98 55 99 174q0 82 -52 133q-31 35 -79 48q145 4 258 81q59 41 105 102t85 159 l-147 61q-29 -72 -60 -114t-67 -70q-76 -57 -187 -58q-154 0 -246 105q-94 104 -94 278t92 279q88 104 234 104q102 0 190 -65q39 -31 61.5 -84t26.5 -150h152v394h-154v-33q-37 33 -79 55q-84 45 -197 45q-213 0 -358 -158q-141 -160 -142 -387z" />
<glyph unicode="&#xe8;" d="M49 483q0 -238 152 -389q150 -156 381 -155q41 0 96 13t106.5 28.5t85.5 29.5l35 13l-43 141q-14 -6 -47 -18.5t-71.5 -24.5t-78.5 -21.5t-67 -9.5q-164 0 -270 111q-88 88 -107 227h875q-8 156 -45 263.5t-109 185.5q-141 152 -367 151q-229 0 -378 -154 q-147 -158 -148 -391zM229 586q25 106 88 176q98 111 250 110q143 0 236 -88q77 -79 106 -198h-680zM330 1448l293 -383h153l-246 383h-200z" />
<glyph unicode="&#xe9;" d="M49 483q0 -238 152 -389q150 -156 381 -155q41 0 96 13t106.5 28.5t85.5 29.5l35 13l-43 141q-14 -6 -47 -18.5t-71.5 -24.5t-78.5 -21.5t-67 -9.5q-164 0 -270 111q-88 88 -107 227h875q-8 156 -45 263.5t-109 185.5q-141 152 -367 151q-229 0 -378 -154 q-147 -158 -148 -391zM229 586q25 106 88 176q98 111 250 110q143 0 236 -88q77 -79 106 -198h-680zM356 1065h154l293 383h-201z" />
<glyph unicode="&#xea;" d="M49 483q0 -238 152 -389q150 -156 381 -155q41 0 96 13t106.5 28.5t85.5 29.5l35 13l-43 141q-14 -6 -47 -18.5t-71.5 -24.5t-78.5 -21.5t-67 -9.5q-164 0 -270 111q-88 88 -107 227h875q-8 156 -45 263.5t-109 185.5q-141 152 -367 151q-229 0 -378 -154 q-147 -158 -148 -391zM195 1073h153l217 201l219 -201h154l-297 363h-152zM229 586q25 106 88 176q98 111 250 110q143 0 236 -88q77 -79 106 -198h-680z" />
<glyph unicode="&#xeb;" d="M49 483q0 -238 152 -389q150 -156 381 -155q41 0 96 13t106.5 28.5t85.5 29.5l35 13l-43 141q-14 -6 -47 -18.5t-71.5 -24.5t-78.5 -21.5t-67 -9.5q-164 0 -270 111q-88 88 -107 227h875q-8 156 -45 263.5t-109 185.5q-141 152 -367 151q-229 0 -378 -154 q-147 -158 -148 -391zM229 586q25 106 88 176q98 111 250 110q143 0 236 -88q77 -79 106 -198h-680zM291 1155h196v197h-196v-197zM645 1155h197v197h-197v-197z" />
<glyph unicode="&#xec;" horiz-adv-x="512" d="M18 -33h508v158h-166v876h-342v-157h170v-719h-170v-158zM20 1448l293 -383h154l-246 383h-201z" />
<glyph unicode="&#xed;" horiz-adv-x="512" d="M18 -33h508v158h-166v876h-342v-157h170v-719h-170v-158zM47 1065h154l293 383h-201z" />
<glyph unicode="&#xee;" horiz-adv-x="512" d="M-115 1073h154l217 201l219 -201h154l-297 363h-152zM18 -33h508v158h-166v876h-342v-157h170v-719h-170v-158z" />
<glyph unicode="&#xef;" horiz-adv-x="512" d="M-18 1155h196v197h-196v-197zM18 -33h508v158h-166v876h-342v-157h170v-719h-170v-158zM336 1155h196v197h-196v-197z" />
<glyph unicode="&#xf0;" horiz-adv-x="1153" d="M61 477q0 -231 148 -385q150 -156 375 -155q236 0 374 182q136 180 136 465q0 283 -164 514q-23 33 -52.5 66.5t-68.5 70.5l266 125l-137 96l-254 -119q-80 55 -229 119l-187 -94q90 -39 144.5 -64.5t89.5 -46.5l-264 -125l137 -96l268 125q55 -47 82 -76 q29 -31 52.5 -61.5t41.5 -59.5q-111 70 -241 70q-223 0 -371 -160q-145 -162 -146 -391zM236 477q0 168 96 281q92 109 246 108q147 0 243 -102q97 -106 97 -260q0 -176 -99 -293q-98 -113 -244 -113q-145 0 -241 109q-98 106 -98 270z" />
<glyph unicode="&#xf1;" horiz-adv-x="1087" d="M-16 844h176v-752v-125h329v158h-157v592q35 31 72.5 56.5t80.5 47.5q92 45 170 45q133 0 133 -137v-637v-125h326v158h-153v616q0 129 -80 209q-80 78 -211 78q-100 0 -209 -45q-35 -16 -67 -34.5t-62 -41.5v94h-348v-157zM168 1133h123q16 43 28.5 60t22.5 24 q20 14 47 14q18 0 50 -10.5t79 -36.5q96 -53 178 -54q68 0 125 52q29 25 51.5 68.5t49.5 125.5h-125q-16 -43 -27.5 -60.5t-21.5 -23.5q-20 -14 -48 -14q-20 0 -52 10t-77 37q-100 53 -178 53q-68 0 -125 -51q-29 -25 -51 -69t-49 -125z" />
<glyph unicode="&#xf2;" d="M51 483q0 -231 148 -387q147 -158 368 -157q221 0 369 157q147 156 147 387q0 229 -147.5 387t-368.5 158t-368.5 -157.5t-147.5 -387.5zM225 483q0 168 97 277q98 106 245 106t246 -106q96 -109 96 -277t-96 -276q-98 -106 -246 -107q-147 0 -245 107q-96 109 -97 276z M330 1448l293 -383h153l-246 383h-200z" />
<glyph unicode="&#xf3;" d="M51 483q0 -231 148 -387q147 -158 368 -157q221 0 369 157q147 156 147 387q0 229 -147.5 387t-368.5 158t-368.5 -157.5t-147.5 -387.5zM225 483q0 168 97 277q98 106 245 106t246 -106q96 -109 96 -277t-96 -276q-98 -106 -246 -107q-147 0 -245 107q-96 109 -97 276z M356 1065h154l293 383h-201z" />
<glyph unicode="&#xf4;" d="M51 483q0 -231 148 -387q147 -158 368 -157q221 0 369 157q147 156 147 387q0 229 -147.5 387t-368.5 158t-368.5 -157.5t-147.5 -387.5zM195 1073h153l217 201l219 -201h154l-297 363h-152zM225 483q0 168 97 277q98 106 245 106t246 -106q96 -109 96 -277t-96 -276 q-98 -106 -246 -107q-147 0 -245 107q-96 109 -97 276z" />
<glyph unicode="&#xf5;" d="M51 483q0 -231 148 -387q147 -158 368 -157q221 0 369 157q147 156 147 387q0 229 -147.5 387t-368.5 158t-368.5 -157.5t-147.5 -387.5zM190 1133h123q16 43 28.5 60t23.5 24q20 14 47 14q18 0 50 -10.5t79 -36.5q96 -53 178 -54q68 0 125 52q29 25 51 68.5t49 125.5 h-125q-16 -43 -27.5 -60.5t-21.5 -23.5q-20 -14 -47 -14q-20 0 -52 10t-77 37q-100 53 -178 53q-68 0 -125 -51q-29 -25 -51.5 -69t-49.5 -125zM225 483q0 168 97 277q98 106 245 106t246 -106q96 -109 96 -277t-96 -276q-98 -106 -246 -107q-147 0 -245 107 q-96 109 -97 276z" />
<glyph unicode="&#xf6;" d="M51 483q0 -231 148 -387q147 -158 368 -157q221 0 369 157q147 156 147 387q0 229 -147.5 387t-368.5 158t-368.5 -157.5t-147.5 -387.5zM225 483q0 168 97 277q98 106 245 106t246 -106q96 -109 96 -277t-96 -276q-98 -106 -246 -107q-147 0 -245 107q-96 109 -97 276z M291 1155h196v197h-196v-197zM645 1155h197v197h-197v-197z" />
<glyph unicode="&#xf7;" horiz-adv-x="1368" d="M113 578h1138v155h-1138v-155zM604 84h180v197h-180v-197zM604 975h180v196h-180v-196z" />
<glyph unicode="&#xf8;" d="M27 -37l104 -86l135 158q123 -96 301 -96q221 0 369 157q147 156 147 387q0 209 -118 355l143 168l-102 90l-140 -164q-121 96 -299 96q-221 0 -368.5 -157.5t-147.5 -387.5q0 -209 119 -354zM225 483q0 168 97 277q98 106 245 106q115 0 191 -59l-475 -549 q-29 47 -43.5 102.5t-14.5 122.5zM375 158l477 549q57 -93 57 -224q0 -168 -96 -276q-98 -106 -246 -107q-113 0 -192 58z" />
<glyph unicode="&#xf9;" horiz-adv-x="1110" d="M-6 844h170v-617q0 -125 76 -200q41 -39 92 -56.5t112 -17.5q113 0 220 47q72 33 122 70v-103h340v158h-168v876h-172v-124v-607q-61 -61 -149 -108q-92 -47 -174 -47q-127 0 -127 131v755h-342v-157zM319 1448l293 -383h154l-246 383h-201z" />
<glyph unicode="&#xfa;" horiz-adv-x="1110" d="M-6 844h170v-617q0 -125 76 -200q41 -39 92 -56.5t112 -17.5q113 0 220 47q72 33 122 70v-103h340v158h-168v876h-172v-124v-607q-61 -61 -149 -108q-92 -47 -174 -47q-127 0 -127 131v755h-342v-157zM346 1065h154l293 383h-201z" />
<glyph unicode="&#xfb;" horiz-adv-x="1110" d="M-6 844h170v-617q0 -125 76 -200q41 -39 92 -56.5t112 -17.5q113 0 220 47q72 33 122 70v-103h340v158h-168v876h-172v-124v-607q-61 -61 -149 -108q-92 -47 -174 -47q-127 0 -127 131v755h-342v-157zM184 1073h154l217 201l219 -201h154l-297 363h-152z" />
<glyph unicode="&#xfc;" horiz-adv-x="1110" d="M-6 844h170v-617q0 -125 76 -200q41 -39 92 -56.5t112 -17.5q113 0 220 47q72 33 122 70v-103h340v158h-168v876h-172v-124v-607q-61 -61 -149 -108q-92 -47 -174 -47q-127 0 -127 131v755h-342v-157zM281 1155h196v197h-196v-197zM635 1155h196v197h-196v-197z" />
<glyph unicode="&#xfd;" horiz-adv-x="1087" d="M-29 844h170l336 -817l-176 -494h164l496 1311h157v157h-469v-157h139l-227 -598l-262 643l-43 112h-285v-157zM334 1065h153l293 383h-200z" />
<glyph unicode="&#xfe;" horiz-adv-x="1216" d="M-37 -309v-158h346v92h2v463q29 -33 58.5 -57.5t64.5 -40.5q100 -51 217 -51q225 0 369 155q141 155 141 395q0 231 -143 383q-143 156 -361 156q-113 0 -215 -51q-70 -33 -131 -105v551h-348v-157h176v-1575h-176zM307 487q0 174 99 279q94 104 241 104q156 0 252 -106 q98 -109 98 -281q0 -170 -96 -276q-94 -106 -248 -107q-147 0 -245 107q-100 106 -101 280z" />
<glyph unicode="&#xff;" horiz-adv-x="1087" d="M-29 844h170l336 -817l-176 -494h164l496 1311h157v157h-469v-157h139l-227 -598l-262 643l-43 112h-285v-157zM268 1155h197v197h-197v-197zM623 1155h196v197h-196v-197z" />
<glyph unicode="&#x152;" horiz-adv-x="2154" d="M70 707q0 -346 211 -545q104 -98 248.5 -146.5t326.5 -48.5h1210v158h-127h-694v508h578v158h-578v475h662v-246h157v403h-1230q-346 0 -553 -194q-211 -197 -211 -522zM250 684q0 287 158 432q160 150 458 150h199v-1141h-205q-147 0 -257.5 38t-190.5 109 q-162 145 -162 412z" />
<glyph unicode="&#x153;" horiz-adv-x="1898" d="M47 483q0 -229 139.5 -386.5t348.5 -157.5q152 0 268 71q90 53 147 150q72 -102 160 -154q117 -68 268 -67q78 0 149.5 20.5t158.5 71.5l-80 137q-66 -45 -117 -61.5t-105 -16.5q-154 0 -251 111q-84 90 -101 227h832q-8 145 -44 249.5t-102 186.5q-133 164 -346 164 q-147 0 -268 -76q-90 -57 -154 -155q-53 94 -143 151q-121 80 -272 80q-209 0 -348.5 -157.5t-139.5 -387.5zM221 483q0 168 92 277q88 106 230 106q139 0 227 -106q92 -109 92 -277q0 -170 -92 -276q-88 -106 -227 -107q-141 0 -230 107q-92 106 -92 276zM1040 586 q25 109 82 178q92 109 234 108q135 0 219 -88q73 -73 102 -198h-637z" />
<glyph unicode="&#x178;" horiz-adv-x="1236" d="M-72 1266h195l412 -650v-491h-193v-158h373v125v524l411 650h181v157h-523v-157h154l-303 -478l-342 543h-2l-58 92h-305v-157zM344 1571h197v196h-197v-196zM698 1571h197v196h-197v-196z" />
<glyph unicode="&#x2c6;" horiz-adv-x="681" d="M-31 1073h154l217 201l219 -201h154l-297 363h-152z" />
<glyph unicode="&#x2dc;" horiz-adv-x="681" d="M-35 1133h123q16 43 28.5 60t22.5 24q20 14 47 14q18 0 50 -10.5t79 -36.5q96 -53 179 -54q68 0 124 52q29 25 51.5 68.5t49.5 125.5h-125q-16 -43 -27.5 -60.5t-21.5 -23.5q-20 -14 -47 -14q-20 0 -52 10t-77 37q-100 53 -179 53q-68 0 -124 -51q-29 -25 -51.5 -69 t-49.5 -125z" />
<glyph unicode="&#x2000;" horiz-adv-x="945" />
<glyph unicode="&#x2001;" horiz-adv-x="1890" />
<glyph unicode="&#x2002;" horiz-adv-x="945" />
<glyph unicode="&#x2003;" horiz-adv-x="1890" />
<glyph unicode="&#x2004;" horiz-adv-x="630" />
<glyph unicode="&#x2005;" horiz-adv-x="472" />
<glyph unicode="&#x2006;" horiz-adv-x="315" />
<glyph unicode="&#x2007;" horiz-adv-x="315" />
<glyph unicode="&#x2008;" horiz-adv-x="236" />
<glyph unicode="&#x2009;" horiz-adv-x="378" />
<glyph unicode="&#x200a;" horiz-adv-x="105" />
<glyph unicode="&#x2010;" horiz-adv-x="704" d="M37 481h627v158h-627v-158z" />
<glyph unicode="&#x2011;" horiz-adv-x="704" d="M37 481h627v158h-627v-158z" />
<glyph unicode="&#x2012;" horiz-adv-x="704" d="M37 481h627v158h-627v-158z" />
<glyph unicode="&#x2013;" horiz-adv-x="1024" d="M-33 426h1090v174h-1090v-174z" />
<glyph unicode="&#x2014;" horiz-adv-x="2048" d="M-33 426h2114v174h-2114v-174z" />
<glyph unicode="&#x2018;" horiz-adv-x="512" d="M166 909h180v256h-51q2 76 12 101q2 8 10.5 13t47.5 5v141q-66 -4 -102 -23.5t-58 -53.5q-39 -66 -39 -187v-252z" />
<glyph unicode="&#x2019;" horiz-adv-x="512" d="M147 907q66 4 102 23.5t58 54.5q39 65 39 186v252h-180v-256h51q-2 -76 -12 -100q-2 -8 -10.5 -13t-47.5 -5v-142z" />
<glyph unicode="&#x201a;" horiz-adv-x="512" d="M147 -152v-141q66 4 102 23.5t58 54.5q39 65 39 186v252h-180v-256h51q-2 -76 -12 -100q-2 -8 -10.5 -13.5t-47.5 -5.5z" />
<glyph unicode="&#x201c;" horiz-adv-x="980" d="M152 909h180v256h-51q2 76 12 101q2 8 10 13t47 5v141q-66 -4 -101.5 -23.5t-58.5 -53.5q-39 -66 -38 -187v-252zM631 909h180v256h-51q2 76 12 101q2 8 10 13t47 5v141q-66 -4 -101.5 -23.5t-57.5 -53.5q-39 -66 -39 -187v-252z" />
<glyph unicode="&#x201d;" horiz-adv-x="980" d="M152 907q66 4 101.5 23.5t57.5 54.5q39 65 39 186v252h-180v-256h51q-2 -76 -12 -100q-2 -8 -10.5 -13t-46.5 -5v-142zM631 907q66 4 101.5 23.5t58.5 54.5q38 65 38 186v252h-180v-256h51q-2 -76 -12 -100q-2 -8 -10 -13t-47 -5v-142z" />
<glyph unicode="&#x201e;" horiz-adv-x="980" d="M147 -152v-141q66 4 102 23.5t58 54.5q39 65 39 186v252h-180v-256h51q-2 -76 -12 -100q-2 -8 -10.5 -13.5t-47.5 -5.5zM635 -152v-141q66 4 101.5 23.5t58.5 54.5q39 65 39 186v252h-181v-256h52q-2 -76 -13 -100q-2 -8 -10 -13.5t-47 -5.5z" />
<glyph unicode="&#x2022;" horiz-adv-x="677" d="M133 623q0 -84 57 -142q61 -57 142 -57q80 0 137 57.5t57 141.5t-57 139q-55 57 -139 57q-82 0 -140 -57q-57 -55 -57 -139z" />
<glyph unicode="&#x2026;" horiz-adv-x="2048" d="M262 -33h180v197h-180v-197zM944 -33h180v197h-180v-197zM1626 -33h180v197h-180v-197z" />
<glyph unicode="&#x202f;" horiz-adv-x="378" />
<glyph unicode="&#x2039;" horiz-adv-x="468" d="M-6 489l334 -522h190l-332 522l332 523h-190z" />
<glyph unicode="&#x203a;" horiz-adv-x="468" d="M-49 -33h190l334 522l-334 523h-190l332 -523z" />
<glyph unicode="&#x205f;" horiz-adv-x="472" />
<glyph unicode="&#x2122;" horiz-adv-x="1921" d="M199 1270h274v-729h156v729h272v153h-702v-153zM928 541h159v555l173 -555h118l185 567v-567h155v882h-211l-186 -585l-180 585h-213v-882z" />
<glyph unicode="&#xe000;" horiz-adv-x="1003" d="M0 0v1004h1004v-1004h-1004z" />
</font>
</defs>
</svg>
