<?xml version="1.0" standalone="no"?>
<!DOCTYPE svg PUBLIC "-//W3C//DTD SVG 1.1//EN" "http://www.w3.org/Graphics/SVG/1.1/DTD/svg11.dtd" >
<svg xmlns="http://www.w3.org/2000/svg">
<metadata></metadata>
<defs>
<font id="stymiestyluslight" horiz-adv-x="778" >
<font-face units-per-em="2048" ascent="1393" descent="-655" />
<missing-glyph horiz-adv-x="409" />
<glyph horiz-adv-x="2048" />
<glyph horiz-adv-x="2048" />
<glyph unicode="&#xd;" horiz-adv-x="2048" />
<glyph unicode=" "  horiz-adv-x="409" />
<glyph unicode="&#x09;" horiz-adv-x="409" />
<glyph unicode="&#xa0;" horiz-adv-x="409" />
<glyph unicode="!" horiz-adv-x="98" d="M20 0v102h58v-102h-58zM20 1368h58l-8 -1122h-41z" />
<glyph unicode="&#x22;" horiz-adv-x="245" d="M41 961v409h41v-409h-41zM164 961v409h41v-409h-41z" />
<glyph unicode="#" horiz-adv-x="946" d="M20 502v41h263l77 217h-262v41h277l131 368l39 -14l-127 -354h227l131 368l39 -14l-127 -354h238v-41h-252l-78 -217h252v-41h-266l-129 -363l-39 15l125 348h-228l-129 -363l-39 15l125 348h-248zM326 543h227l78 217h-228z" />
<glyph unicode="$" horiz-adv-x="350" d="M20 1149q0 50 34 88t83 46v58h41v-59q47 -12 103 -68l-30 -28q-57 57 -93 57q-39 0 -68 -27.5t-29 -66.5q0 -35 27.5 -60.5t67 -42.5t79.5 -35t67.5 -50.5t27.5 -77.5q0 -60 -45.5 -101t-106.5 -43v-73h-41v79q-40 11 -99 54l26 32q16 -14 51.5 -32.5t56.5 -18.5 q48 0 82.5 30t34.5 73q0 35 -27.5 60.5t-67 42.5t-79.5 35t-67.5 50.5t-27.5 77.5z" />
<glyph unicode="%" horiz-adv-x="1171" d="M20 950q0 68 13 136.5t40 133.5t76 105.5t113 40.5q52 0 93.5 -27.5t67.5 -71t43.5 -100t24.5 -111t7 -108.5q0 -69 -12 -137t-38 -133t-74 -105.5t-112 -40.5t-113 41t-76 106t-40 134t-13 137zM61 950q0 -65 12.5 -129.5t35.5 -121t63 -91.5t90 -35q55 0 95.5 39.5 t61 101t29.5 120.5t9 114t-9 114.5t-29.5 121.5t-61 101.5t-95.5 39.5q-66 0 -113 -60t-67.5 -142.5t-20.5 -172.5zM285 -14l540 1407h47l-540 -1407h-47zM674 401q0 68 13 136.5t39.5 133.5t75.5 105.5t113 40.5q52 0 93.5 -27.5t67.5 -71t43.5 -100t24.5 -111t7 -108.5 q0 -69 -12 -137t-38 -132.5t-74 -105t-112 -40.5t-113 40.5t-75.5 105.5t-39.5 134t-13 137zM715 401q0 -65 12 -129.5t35.5 -120.5t63 -91t89.5 -35q55 0 95.5 39t61 100.5t29.5 120.5t9 114t-9 114.5t-29.5 121.5t-61 101.5t-95.5 39.5q-66 0 -113 -60t-67 -142.5 t-20 -172.5z" />
<glyph unicode="&#x26;" horiz-adv-x="919" d="M20 389q0 123 64 217.5t178 184.5q-57 136 -57 268q0 79 29 148.5t88 115t137 45.5q83 0 144 -51t61 -131q0 -37 -10 -71t-32 -65.5t-44 -57t-59.5 -56.5t-64 -51.5t-72.5 -54t-71 -52.5q18 -41 40.5 -82t54 -87.5t53 -78t65 -86.5t61 -77t69.5 -85.5t65 -78.5 q106 140 106 329q0 61 -26 119h-62v41h146v-41h-41q24 -62 24 -119q0 -210 -121 -362l103 -129h51v-41h-76l-20 31l-86 108q-140 -147 -314 -147q-160 0 -271.5 118t-111.5 279zM61 389q0 -146 100 -251t242 -105q160 0 289 139q-4 5 -50 60.5t-54.5 66t-48.5 59.5t-53 67 t-45.5 61t-48 68.5t-39.5 62.5t-41.5 69.5t-32.5 65.5q-103 -81 -160.5 -167t-57.5 -196zM246 1059q0 -116 49 -242q25 19 78 58t79 59t65 55t57.5 61.5t33.5 62.5t15 73q0 60 -49 100.5t-115 40.5q-94 0 -153.5 -80t-59.5 -188z" />
<glyph unicode="'" horiz-adv-x="122" d="M41 961v409h41v-409h-41z" />
<glyph unicode="(" horiz-adv-x="333" d="M20 647q0 404 236 770h53q-231 -362 -231 -770q0 -416 235 -778h-53q-240 366 -240 778zM309 1417z" />
<glyph unicode=")" horiz-adv-x="333" d="M20 -131q236 363 236 778q0 408 -231 770h53q235 -365 235 -770q0 -414 -239 -778h-54zM25 1417z" />
<glyph unicode="*" horiz-adv-x="638" d="M20 836l13 38l266 -86v279h41v-279l266 86l12 -38l-266 -86l164 -226l-33 -24l-164 225l-163 -225l-33 24l164 226z" />
<glyph unicode="+" horiz-adv-x="1187" d="M41 532v41h532v533h41v-533h533v-41h-533v-532h-41v532h-532z" />
<glyph unicode="," horiz-adv-x="159" d="M4 -84l47 92v94h58v-102l-56 -109z" />
<glyph unicode="-" horiz-adv-x="528" d="M41 414v57h446v-57h-446z" />
<glyph unicode="." horiz-adv-x="159" d="M51 0v102h58v-102h-58z" />
<glyph unicode="/" horiz-adv-x="643" d="M8 -190l555 1583h47l-555 -1583h-47z" />
<glyph unicode="0" horiz-adv-x="837" d="M20 684q0 88 13 179t43.5 184.5t75.5 165.5t115.5 117.5t156.5 45.5t155.5 -46t112.5 -117.5t72.5 -166t41 -185t11.5 -179.5t-11.5 -179.5t-41 -185t-72.5 -166t-112.5 -117.5t-155.5 -46t-156.5 46t-115.5 118.5t-75.5 166.5t-43.5 185.5t-13 179.5zM61 682 q0 -114 21.5 -225.5t64 -209t114.5 -158t163 -60.5q73 0 133.5 40t100.5 105.5t67 152t39 175.5t12 180t-12 180t-39 175.5t-67 152t-100.5 105.5t-133.5 40q-91 0 -163 -60.5t-114.5 -158t-64 -209t-21.5 -225.5z" />
<glyph unicode="1" horiz-adv-x="204" d="M20 0v41h62v1286h-62v41h103v-1327h61v-41h-164z" />
<glyph unicode="2" horiz-adv-x="802" d="M20 0v20q1 63 43 138.5t116.5 153t143.5 138.5t156 130q262 207 262 397q0 144 -90.5 249t-224.5 105q-194 0 -367 -246l-32 25q183 262 399 262q102 0 185 -56t127 -146t44 -193q0 -212 -278 -430q-415 -325 -441 -506h670v61h41v-102h-754z" />
<glyph unicode="3" horiz-adv-x="796" d="M20 209l33 24q131 -196 330 -196q137 0 244.5 101.5t107.5 217.5q0 67 -25 129t-72.5 111.5t-124.5 79t-173 29.5h-96v40q70 0 129.5 8t118 30t99.5 56t66 90t25 128q0 113 -81.5 191.5t-197.5 78.5q-162 0 -288 -162l-33 25q137 178 321 178q132 0 226 -90t94 -221 q0 -254 -256 -326q147 -34 228 -139t81 -236q0 -88 -55 -171.5t-146.5 -136t-191.5 -52.5q-223 0 -363 213z" />
<glyph unicode="4" horiz-adv-x="813" d="M20 348v31l609 989h45v-979h119v-41h-119v-307h61v-41h-164v41h62v307h-613zM76 389h557v907z" />
<glyph unicode="5" horiz-adv-x="835" d="M20 229l33 25q145 -221 365 -221q150 0 253 114.5t103 270.5q0 107 -44.5 200.5t-127.5 151t-184 57.5q-166 0 -307 -188l-37 14l98 715h602v-121h-39v80h-528l-82 -606q134 147 293 147q115 0 207.5 -64.5t141 -167t48.5 -218.5q0 -172 -115 -299t-282 -127 q-240 0 -398 237z" />
<glyph unicode="6" horiz-adv-x="827" d="M20 602q0 104 12.5 206t43 206.5t77 183.5t120.5 128.5t167 49.5q52 0 98.5 -16.5t86.5 -49.5t66 -61.5t61 -72.5l-33 -25q-34 43 -58.5 69.5t-60 56.5t-75.5 44t-85 14q-79 0 -143.5 -44t-107.5 -116.5t-72.5 -168.5t-42.5 -197.5t-13 -206.5q47 123 138.5 199t216.5 76 q114 0 205 -65.5t138.5 -167.5t47.5 -218q0 -110 -46 -208t-133 -160t-196 -62q-106 0 -186.5 47t-129 130.5t-72.5 191.5t-24 237zM68 473q21 -201 112.5 -318.5t251.5 -117.5q96 0 173.5 55t119 143.5t41.5 190.5q0 107 -43.5 200.5t-125 151.5t-181.5 58 q-137 0 -229.5 -103.5t-118.5 -259.5z" />
<glyph unicode="7" horiz-adv-x="798" d="M20 1262v106h758v-29l-610 -1339h-41l600 1327h-666v-65h-41z" />
<glyph unicode="8" horiz-adv-x="851" d="M20 354q0 129 78.5 229.5t198.5 139.5q-105 35 -170.5 117t-65.5 192q0 146 108.5 246t256.5 100t256.5 -100t108.5 -246q0 -112 -66.5 -193.5t-171.5 -115.5q121 -41 199.5 -142.5t78.5 -226.5q0 -104 -57 -189.5t-149.5 -132t-198.5 -46.5t-199 46.5t-150 132 t-57 189.5zM61 354q0 -140 108.5 -233.5t256.5 -93.5t256.5 93.5t108.5 233.5q0 141 -109.5 244.5t-255.5 103.5q-147 0 -256 -101t-109 -247zM102 1032q0 -127 95.5 -208t228.5 -81t228.5 81t95.5 208q0 128 -96 216.5t-228 88.5t-228 -88.5t-96 -216.5z" />
<glyph unicode="9" horiz-adv-x="827" d="M20 942q0 110 46 208t133 160t196 62q106 0 186.5 -47t129 -130.5t72.5 -191.5t24 -237q0 -104 -12.5 -206t-43 -206.5t-77 -183.5t-120.5 -128.5t-167 -49.5q-52 0 -98.5 16.5t-86.5 50.5t-65.5 61.5t-60.5 72.5l33 24q34 -44 58 -70t59.5 -56t75.5 -44t85 -14 q79 0 143.5 44t107.5 116.5t72.5 168.5t42.5 197.5t13 206.5q-47 -123 -138 -198.5t-216 -75.5q-114 0 -205 65t-139 167.5t-48 217.5zM61 942q0 -107 44 -200.5t125.5 -151.5t181.5 -58q137 0 229.5 103.5t118.5 259.5q-21 201 -113 318.5t-252 117.5q-96 0 -173.5 -55 t-119 -143.5t-41.5 -190.5z" />
<glyph unicode=":" horiz-adv-x="159" d="M51 0v102h58v-102h-58zM51 406v102h58v-102h-58z" />
<glyph unicode=";" horiz-adv-x="159" d="M4 -84l47 92v94h58v-102l-56 -109zM51 406v102h58v-102h-58z" />
<glyph unicode="=" horiz-adv-x="874" d="M41 395v41h793v-41h-793zM41 582v41h793v-41h-793z" />
<glyph unicode="?" horiz-adv-x="587" d="M20 1198q110 172 263 172q68 0 123.5 -32.5t89.5 -86.5t52.5 -119t18.5 -133q0 -84 -37.5 -169.5t-101.5 -142.5t-133 -58v-379h-41v420h20q101 0 176.5 101t75.5 228q0 133 -66 231.5t-177 98.5q-73 0 -128 -39.5t-102 -111.5zM246 0v102h57v-102h-57z" />
<glyph unicode="A" horiz-adv-x="839" d="M20 0v41h64v967q0 70 26 136.5t70.5 117t107.5 81.5t132 31t132 -31t107.5 -81.5t70.5 -117t26 -136.5v-967h63v-41h-168v41h64v590h-590v-590h63v-41h-168zM125 672h590v336q0 129 -87 227t-208 98t-208 -98t-87 -227v-336z" />
<glyph unicode="B" horiz-adv-x="659" d="M20 0v41h64v1286h-57v41h161q106 0 199.5 -41.5t152 -120.5t58.5 -178q0 -118 -70 -204t-186 -124q128 -33 212.5 -121t84.5 -212q0 -168 -121.5 -267.5t-327.5 -99.5h-170zM125 41h65q188 0 298 87t110 239q0 91 -55 163t-140.5 109t-183.5 37h-94v-635zM125 717h92 q151 15 245.5 98t94.5 213q0 87 -53.5 156.5t-137.5 106t-178 36.5h-63v-610z" />
<glyph unicode="C" horiz-adv-x="1103" d="M20 702q0 134 39.5 256t110 214.5t176.5 147t232 54.5q139 0 241.5 -62.5t196.5 -181.5v121h41v-262h-41v74q-98 134 -198.5 202t-239.5 68q-115 0 -213 -50.5t-164 -136.5t-103 -201t-37 -243q0 -131 34 -251t96.5 -214t160.5 -150t217 -56q165 0 288.5 104t189.5 268 l36 -16q-71 -173 -203 -285t-311 -112q-130 0 -236.5 60.5t-173.5 161.5t-103 227.5t-36 262.5z" />
<glyph unicode="D" horiz-adv-x="946" d="M20 0v41h64v1286h-64v41h226q173 0 305 -49t213 -138t121.5 -205.5t40.5 -258.5q0 -120 -24.5 -225.5t-78 -196.5t-132.5 -156t-192.5 -102t-252.5 -37h-226zM125 41h121q165 0 290.5 53t200.5 147.5t111.5 213.5t36.5 262q0 105 -22 195t-71.5 167.5t-123 131.5t-181 85 t-241.5 31h-121v-1286z" />
<glyph unicode="E" horiz-adv-x="759" d="M20 0v41h62v1286h-62v41h719v-102h-41v61h-575v-610h332v61h41v-164h-41v62h-332v-635h575v61h41v-102h-719z" />
<glyph unicode="F" horiz-adv-x="759" d="M20 0v41h62v1286h-62v41h719v-102h-41v61h-575v-610h332v61h41v-164h-41v62h-332v-635h61v-41h-164z" />
<glyph unicode="G" horiz-adv-x="1114" d="M20 680q0 132 36.5 254t105 221.5t178 159t244.5 59.5q134 0 238 -66t194 -182v129h41v-280h-41v84q-94 132 -195 203t-237 71q-125 0 -226.5 -55.5t-165 -148t-97.5 -208t-34 -241.5q0 -130 36.5 -248t102.5 -208t166 -143.5t218 -53.5q78 0 148 24.5t127.5 70.5 t102.5 98t91 120v326h-504v-66h-41v107h586v-379q-3 -7 -9.5 -19.5t-30 -48t-51 -67.5t-72 -71.5t-93.5 -68t-116 -48t-138 -19.5q-128 0 -236 57.5t-178.5 154t-110 221.5t-39.5 261z" />
<glyph unicode="H" horiz-adv-x="739" d="M20 0v41h62v1286h-62v41h164v-41h-61v-610h493v610h-61v41h164v-41h-62v-1286h62v-41h-164v41h61v635h-493v-635h61v-41h-164z" />
<glyph unicode="I" horiz-adv-x="204" d="M20 0v41h62v1286h-62v41h164v-41h-61v-1286h61v-41h-164z" />
<glyph unicode="J" horiz-adv-x="309" d="M20 0v41h82q41 0 62.5 28.5t21.5 63.5v1194h-61v41h164v-41h-62v-1194q0 -55 -36 -94t-89 -39h-82z" />
<glyph unicode="K" horiz-adv-x="1116" d="M20 0v41h62v1286h-62v41h164v-41h-61v-647l788 647h-59v41h186v-41h-61l-655 -536l696 -750h78v-41h-197v41h64l-674 723l-166 -137v-586h61v-41h-164z" />
<glyph unicode="L" horiz-adv-x="759" d="M20 0v41h62v1286h-62v41h164v-41h-61v-1286h575v61h41v-102h-719z" />
<glyph unicode="M" horiz-adv-x="940" d="M20 0v41h62v1286h-62v41h119l330 -1014l332 1014h119v-41h-62v-1286h62v-41h-164v41h61v1249l-328 -1007h-40l-326 1007v-1249h61v-41h-164z" />
<glyph unicode="N" horiz-adv-x="817" d="M20 0v41h62v1286h-62v41h123l551 -1249v1208h-61v41h164v-41h-62v-1327h-39l-573 1315v-1274h61v-41h-164z" />
<glyph unicode="O" horiz-adv-x="835" d="M20 680q0 90 16 185t50 186.5t81.5 163t116 115.5t146.5 44q79 0 145 -44t109.5 -115.5t73.5 -164t43.5 -186t13.5 -184.5t-13.5 -184.5t-43.5 -186t-73.5 -164t-109.5 -115.5t-145 -44q-78 0 -146.5 44t-116 115.5t-81.5 163t-50 186.5t-16 185zM61 680 q0 -115 26.5 -230.5t72.5 -210t117 -153.5t153 -59q81 0 148 58.5t109 153.5t64.5 209t22.5 232t-22.5 232t-64.5 209t-109 153.5t-148 58.5q-82 0 -153 -59t-117 -153.5t-72.5 -210t-26.5 -230.5z" />
<glyph unicode="P" horiz-adv-x="755" d="M20 0v41h64v1286h-64v41h224q97 0 183.5 -22t156 -64.5t110.5 -112t41 -157.5q0 -79 -37 -145t-98 -107.5t-137 -64.5t-158 -23h-180v-631h63v-41h-168zM125 713h180q159 0 274 82.5t115 216.5q0 101 -63.5 173.5t-163.5 107t-223 34.5h-119v-614z" />
<glyph unicode="Q" horiz-adv-x="1122" d="M20 682q0 104 22 203.5t67 188t108 155t152 105t192 38.5t192 -38.5t152 -105t108 -155t67 -188t22 -203.5q0 -190 -71 -356.5t-202 -257.5q55 -48 107 -48q22 0 56.5 15t51.5 28l25 -32q-77 -51 -133 -51q-78 0 -143 65q-103 -59 -232 -59q-103 0 -192 39.5t-152 106.5 t-108 156t-67 189.5t-22 204.5zM61 682q0 -126 33.5 -242.5t95 -209t158 -148t213.5 -55.5q110 0 203 49q-31 33 -46.5 47t-45 29.5t-60.5 15.5q-30 0 -55 -14l-16 36l9 4l18 6t21.5 6t22.5 3q13 0 25.5 -2t22.5 -4.5t22 -8.5t19.5 -9.5t19 -12.5t16.5 -12.5t17 -15t15 -15 t15.5 -16.5t14.5 -15q124 83 193 241.5t69 342.5q0 126 -33.5 241.5t-95 207t-158 146t-213.5 54.5t-213.5 -54.5t-158 -146t-95 -207t-33.5 -241.5z" />
<glyph unicode="R" horiz-adv-x="765" d="M20 0v41h64v1286h-64v41h166q137 0 248.5 -41t180.5 -124.5t69 -196.5q0 -105 -71 -188t-174 -124q120 -25 181.5 -98.5t61.5 -185.5v-369h63v-41h-104v410q0 151 -121 213q-84 43 -215 43h-180v-625h63v-41h-168zM125 707h180q72 0 149 36.5t133 107.5t56 155 q0 147 -129 234t-328 87h-61v-620z" />
<glyph unicode="S" horiz-adv-x="573" d="M20 -6v270h41v-143q105 -98 222 -98q97 0 163 79.5t66 186.5q0 65 -18 121.5t-56.5 107.5t-76.5 89.5t-99 90.5q-242 204 -242 381q0 120 71.5 207.5t182.5 87.5q107 0 195 -88v78h41v-242h-41v105q-44 50 -89.5 78t-105.5 28q-93 0 -153 -75.5t-60 -178.5 q0 -49 21.5 -100t60 -98.5t71.5 -80t75 -69.5q62 -53 101.5 -93t81 -95.5t61.5 -118.5t20 -135q0 -122 -76.5 -214.5t-193.5 -92.5q-118 0 -222 86v-74h-41z" />
<glyph unicode="T" horiz-adv-x="794" d="M20 1253v115h754v-115h-41v74h-315v-1286h63v-41h-168v41h64v1286h-316v-74h-41z" />
<glyph unicode="U" horiz-adv-x="937" d="M20 1327v41h168v-41h-63v-924q0 -168 92.5 -275.5t251.5 -107.5t251.5 107.5t92.5 275.5v924h-63v41h168v-41h-64v-924q0 -186 -103.5 -304.5t-281.5 -118.5t-281.5 118.5t-103.5 304.5v924h-64z" />
<glyph unicode="V" horiz-adv-x="950" d="M20 1327v41h170v-41h-55l340 -1249l340 1249h-55v41h170v-41h-72l-362 -1327h-41l-363 1327h-72z" />
<glyph unicode="W" horiz-adv-x="1093" d="M20 1327v41h170v-41h-69l172 -1194l233 969h41l234 -969l172 1194h-70v41h170v-41h-57l-193 -1327h-35l-241 1010l-242 -1010h-35l-192 1327h-58z" />
<glyph unicode="X" horiz-adv-x="925" d="M20 0v41h58l362 655l-348 631h-67v41h170v-41h-56l324 -588l323 588h-67v41h170v-41h-55l-349 -631l363 -655h57v-41h-170v41h66l-338 614l-338 -614h65v-41h-170z" />
<glyph unicode="Y" horiz-adv-x="946" d="M20 1327v41h175v-41h-60l338 -616l338 616h-59v41h174v-41h-72l-360 -665v-621h61v-41h-164v41h62v621l-361 665h-72z" />
<glyph unicode="Z" horiz-adv-x="944" d="M20 0v41l848 1286h-727v-61h-41v102h824v-33l-861 -1294h816v76h41v-117h-900z" />
<glyph unicode="^" horiz-adv-x="1024" d="M307 799l152 239h61l152 -239h-49l-134 194l-133 -194h-49zM307 799z" />
<glyph unicode="`" horiz-adv-x="290" d="M20 1001l29 29l221 -176l-28 -29z" />
<glyph unicode="a" horiz-adv-x="753" d="M20 356q0 152 108.5 260.5t260.5 108.5q142 0 246 -94v86h41v-676h57v-41h-98v82q-104 -94 -246 -94q-152 0 -260.5 108t-108.5 260zM61 356q0 -135 96.5 -231t231.5 -96q148 0 246 111v433q-98 111 -246 111q-135 0 -231.5 -96.5t-96.5 -231.5z" />
<glyph unicode="b" horiz-adv-x="835" d="M20 0v41h58v1284h-58v41h99v-840q46 91 134.5 146t192.5 55q152 0 260.5 -108.5t108.5 -260.5t-108.5 -260t-260.5 -108q-104 0 -192.5 55t-134.5 145v-190h-99zM119 358q0 -135 96 -231t231 -96t231.5 96t96.5 231t-96.5 231.5t-231.5 96.5t-231 -96.5t-96 -231.5z" />
<glyph unicode="c" horiz-adv-x="747" d="M20 356q0 152 108.5 260.5t260.5 108.5q154 0 266 -115v105h41v-217h-41v49q-45 64 -115 100.5t-151 36.5q-135 0 -231.5 -96.5t-96.5 -231.5t96.5 -231t231.5 -96q100 0 182 54.5t119 143.5l37 -16q-44 -100 -135 -161.5t-203 -61.5q-152 0 -260.5 108t-108.5 260z" />
<glyph unicode="d" horiz-adv-x="835" d="M20 358q0 152 108.5 260.5t260.5 108.5q104 0 193 -55t135 -146v799h-58v41h99v-1325h57v-41h-98v190q-46 -90 -134.5 -145t-193.5 -55q-152 0 -260.5 108t-108.5 260zM61 358q0 -135 96.5 -231t231.5 -96t231.5 96t96.5 231t-96.5 231.5t-231.5 96.5t-231.5 -96.5 t-96.5 -231.5z" />
<glyph unicode="e" d="M20 356q0 152 108.5 260.5t260.5 108.5t260.5 -108.5t108.5 -260.5h-697q0 -135 96.5 -231t231.5 -96q103 0 186 58.5t119 152.5l39 -15q-40 -105 -134 -171t-210 -66q-152 0 -260.5 108t-108.5 260zM63 397h652q-15 122 -108.5 204.5t-217.5 82.5t-217.5 -82.5 t-108.5 -204.5z" />
<glyph unicode="f" horiz-adv-x="253" d="M20 684v41h68v561q0 34 22.5 58t55.5 24q36 0 67 -31l-32 -24q0 3 -12.5 8.5t-22.5 5.5q-15 0 -26 -11.5t-11 -29.5v-561h86v-41h-86v-643h61v-41h-165v41h63v643h-68z" />
<glyph unicode="g" horiz-adv-x="835" d="M20 358q0 152 108.5 260.5t260.5 108.5q104 0 193 -55t135 -146v191h98v-41h-57v-973q0 -146 -103 -249t-249 -103q-100 0 -177 47l21 37q75 -43 156 -43q128 0 219.5 92t91.5 219v487q-46 -90 -134.5 -145t-193.5 -55q-152 0 -260.5 108t-108.5 260zM61 358 q0 -135 96.5 -231t231.5 -96t231.5 96t96.5 231t-96.5 231.5t-231.5 96.5t-231.5 -96.5t-96.5 -231.5z" />
<glyph unicode="h" horiz-adv-x="649" d="M20 0v41h58v1286h-58v41h99v-747q48 55 100 79.5t123 24.5q86 0 157.5 -56.5t71.5 -119.5v-508h58v-41h-99v549q0 44 -59 89.5t-129 45.5q-72 0 -119 -29.5t-104 -99.5v-514h57v-41h-156z" />
<glyph unicode="i" horiz-adv-x="196" d="M20 0v41h58v635h-58v41h99v-676h57v-41h-156zM66 860v58h47v-58h-47z" />
<glyph unicode="j" horiz-adv-x="202" d="M12 -610l37 20q11 -18 31 -18q41 0 41 65v1219h-58v41h99v-1260q0 -47 -21 -76.5t-61 -29.5q-11 0 -21 3t-17 7t-13 9t-9 9t-6 7zM102 860v58h48v-58h-48z" />
<glyph unicode="k" horiz-adv-x="661" d="M20 0v41h58v1286h-58v41h99v-995l354 311h-65v41h170v-41h-42l-310 -271l356 -372h59v-41h-172v41h56l-330 345l-76 -68v-277h57v-41h-156z" />
<glyph unicode="l" horiz-adv-x="196" d="M20 0v41h58v1286h-58v41h99v-1327h57v-41h-156z" />
<glyph unicode="m" horiz-adv-x="925" d="M20 0v41h58v635h-58v41h99v-92q79 102 178 102q59 0 104 -29t68 -84q70 113 186 113q80 0 136.5 -65.5t56.5 -139.5v-481h57v-41h-98v522q0 61 -45.5 112.5t-106.5 51.5q-111 0 -170 -131v-514h58v-41h-99v555q-12 63 -50 97t-97 34q-55 0 -95.5 -34.5t-82.5 -96.5v-514 h57v-41h-156z" />
<glyph unicode="n" horiz-adv-x="665" d="M20 0v41h58v635h-58v41h99v-92q50 50 103 75t124 25q99 0 170.5 -55t71.5 -142v-487h57v-41h-98v528q0 68 -60 112t-141 44q-66 0 -115.5 -28.5t-111.5 -98.5v-516h57v-41h-156z" />
<glyph unicode="o" d="M20 356q0 152 108.5 260.5t260.5 108.5t260.5 -108.5t108.5 -260.5t-108.5 -260t-260.5 -108t-260.5 108t-108.5 260zM61 356q0 -135 96.5 -231t231.5 -96t231.5 96t96.5 231t-96.5 231.5t-231.5 96.5t-231.5 -96.5t-96.5 -231.5z" />
<glyph unicode="p" horiz-adv-x="835" d="M20 676v41h99v-191q46 91 134.5 146t192.5 55q152 0 260.5 -108.5t108.5 -260.5t-108.5 -260t-260.5 -108q-104 0 -192.5 55t-134.5 145v-798h57v-41h-98v1325h-58zM119 358q0 -135 96 -231t231 -96t231.5 96t96.5 231t-96.5 231.5t-231.5 96.5t-231 -96.5t-96 -231.5z " />
<glyph unicode="q" horiz-adv-x="835" d="M20 358q0 152 108.5 260.5t260.5 108.5q104 0 193 -55t135 -146v191h98v-41h-57v-1284h57v-41h-98v839q-46 -90 -134.5 -145t-193.5 -55q-152 0 -260.5 108t-108.5 260zM61 358q0 -135 96.5 -231t231.5 -96t231.5 96t96.5 231t-96.5 231.5t-231.5 96.5t-231.5 -96.5 t-96.5 -231.5z" />
<glyph unicode="r" horiz-adv-x="428" d="M20 0v41h58v635h-58v41h99v-107q91 113 211 113l78 -6v-107h-41v70q-14 2 -37 2q-118 0 -211 -137v-504h57v-41h-156z" />
<glyph unicode="s" horiz-adv-x="577" d="M20 535q0 90 78.5 142t175.5 52q87 0 197 -84v72h41v-209h-41v86q-50 43 -103 68.5t-94 25.5q-86 0 -149.5 -42t-63.5 -111q0 -47 43 -77t89 -38l204 -33q68 -11 114 -60t46 -118q0 -95 -79.5 -157t-186.5 -62q-69 0 -118 20.5t-110 67.5v-78h-40v209h40v-80 q68 -53 115 -75.5t113 -22.5q91 0 158 50.5t67 127.5q0 57 -38 93t-89 44l-205 33q-60 9 -112 50.5t-52 105.5z" />
<glyph unicode="t" horiz-adv-x="249" d="M20 684v41h66v487h41v-487h102v-41h-102v-643h84v-41h-125v684h-66z" />
<glyph unicode="u" horiz-adv-x="665" d="M20 676v41h99v-502q0 -77 58.5 -129.5t141.5 -52.5q128 0 228 139v504h-58v41h99v-676h57v-41h-98v106q-99 -114 -228 -114q-99 0 -170 64t-71 159v461h-58z" />
<glyph unicode="v" horiz-adv-x="776" d="M20 676v41h162v-41h-57l264 -604l262 604h-57v41h162v-41h-62l-291 -676h-28l-293 676h-62z" />
<glyph unicode="w" horiz-adv-x="1101" d="M20 676v41h162v-41h-57l197 -604l208 645h41l209 -645l197 604h-57v41h161v-41h-59l-221 -676h-41l-209 645l-209 -645h-41l-221 676h-60z" />
<glyph unicode="x" horiz-adv-x="761" d="M20 0v41h64l258 340l-246 295h-73v41h182v-41h-55l217 -260l198 260h-55v41h182v-41h-76l-223 -293l289 -342h59v-41h-182v41h68l-258 309l-234 -309h68v-41h-183z" />
<glyph unicode="y" horiz-adv-x="759" d="M20 676v41h162v-41h-61l266 -613l246 613h-55v41h161v-41h-63l-514 -1284h55v-41h-162v41h64l246 618l-289 666h-56z" />
<glyph unicode="z" horiz-adv-x="659" d="M20 0v29l537 647h-469v-49h-41v90h580v-21l-543 -655h514v68h41v-109h-619z" />
<glyph unicode="~" horiz-adv-x="610" d="M41 401q0 55 49 96.5t109 41.5q48 0 110.5 -28t102.5 -28q44 0 78.5 34t37.5 77h41q-3 -57 -49 -104.5t-108 -47.5q-48 0 -110.5 28t-102.5 28q-45 0 -81 -32t-36 -65h-41z" />
<glyph unicode="&#xa3;" horiz-adv-x="831" d="M20 717v41h60q-19 93 -19 160q0 119 49 221t142.5 165.5t210.5 63.5q54 0 99.5 -11.5t82 -35t54.5 -39t46 -43.5v39h41v-156h-41v56q-103 149 -282 149q-156 0 -258.5 -120.5t-102.5 -288.5q0 -82 19 -160h207v-41h-195q16 -54 47 -129t54.5 -130t42 -134.5t18.5 -159.5 q0 -37 -4 -123h479v76h41v-117h-737v41h176q4 86 4 123q0 100 -28 192t-73 194t-63 167h-70z" />
<glyph unicode="&#xa5;" horiz-adv-x="610" d="M92 440q0 41 36 76t79 35q35 0 67.5 -20.5t60 -41t48.5 -20.5q28 0 47 19.5t21 48.5l41 -1q-2 -45 -33 -76.5t-76 -31.5q-38 0 -91.5 41t-84.5 41q-26 0 -50 -23t-24 -47h-41z" />
<glyph unicode="&#xa8;" horiz-adv-x="327" d="M20 893v68h66v-68h-66zM242 893v68h65v-68h-65z" />
<glyph unicode="&#xad;" horiz-adv-x="528" d="M41 414v57h446v-57h-446z" />
<glyph unicode="&#xb4;" horiz-adv-x="290" d="M20 854l222 176l28 -29l-221 -176z" />
<glyph unicode="&#xc6;" horiz-adv-x="1591" d="M29 0v41h65l826 1268v18h-62v41h713v-102h-41v61h-569v-610h327v61h41v-164h-41v62h-327v-635h569v61h41v-102h-713v41h62v522h-442l-339 -522h60v-41h-170zM503 604h417v637z" />
<glyph unicode="&#xc7;" horiz-adv-x="1103" d="M20 702q0 134 39.5 256t110 214.5t176.5 147t232 54.5q139 0 241.5 -62.5t196.5 -181.5v121h41v-262h-41v74q-98 134 -198.5 202t-239.5 68q-115 0 -213 -50.5t-164 -136.5t-103 -201t-37 -243q0 -131 34 -251t96.5 -214t160.5 -150t217 -56q165 0 288.5 104t189.5 268 l36 -16q-66 -161 -185.5 -270t-280.5 -125l-183 -185l-32 26l155 157q-128 3 -232 64.5t-169.5 162t-100.5 225.5t-35 260z" />
<glyph unicode="&#xdf;" horiz-adv-x="806" d="M20 0v41h58v1030q0 123 87 210t210 87t210 -87t87 -210q0 -91 -49.5 -164.5t-130.5 -107.5q129 -39 211.5 -148.5t82.5 -247.5q0 -170 -120.5 -290.5t-290.5 -120.5q-98 0 -178 41v45q82 -45 178 -45q154 0 262 108t108 262t-108 262.5t-262 108.5v41q106 0 181 75 t75 181t-75 181t-181 75t-181 -75t-75 -181v-1071h-99z" />
<glyph unicode="&#xe0;" horiz-adv-x="753" d="M20 356q0 152 108.5 260.5t260.5 108.5q142 0 246 -94v86h41v-676h57v-41h-98v82q-104 -94 -246 -94q-152 0 -260.5 108t-108.5 260zM61 356q0 -135 96.5 -231t231.5 -96q148 0 246 111v433q-98 111 -246 111q-135 0 -231.5 -96.5t-96.5 -231.5zM256 1001l29 29l221 -176 l-29 -29z" />
<glyph unicode="&#xe1;" horiz-adv-x="753" d="M20 356q0 152 108.5 260.5t260.5 108.5q142 0 246 -94v86h41v-676h57v-41h-98v82q-104 -94 -246 -94q-152 0 -260.5 108t-108.5 260zM61 356q0 -135 96.5 -231t231.5 -96q148 0 246 111v433q-98 111 -246 111q-135 0 -231.5 -96.5t-96.5 -231.5zM279 854l221 176l28 -29 l-221 -176z" />
<glyph unicode="&#xe2;" horiz-adv-x="753" d="M20 356q0 152 108.5 260.5t260.5 108.5q142 0 246 -94v86h41v-676h57v-41h-98v82q-104 -94 -246 -94q-152 0 -260.5 108t-108.5 260zM61 356q0 -135 96.5 -231t231.5 -96q148 0 246 111v433q-98 111 -246 111q-135 0 -231.5 -96.5t-96.5 -231.5zM211 834l151 225h62 l151 -225h-49l-133 180l-133 -180h-49z" />
<glyph unicode="&#xe3;" horiz-adv-x="753" d="M20 356q0 152 108.5 260.5t260.5 108.5q142 0 246 -94v86h41v-676h57v-41h-98v82q-104 -94 -246 -94q-152 0 -260.5 108t-108.5 260zM61 356q0 -135 96.5 -231t231.5 -96q148 0 246 111v433q-98 111 -246 111q-135 0 -231.5 -96.5t-96.5 -231.5zM203 836q0 41 35.5 75.5 t78.5 34.5q35 0 68 -20.5t60.5 -41t48.5 -20.5q28 0 46.5 19.5t20.5 48.5h41q-2 -45 -32.5 -77t-75.5 -32q-38 0 -92.5 41t-84.5 41q-27 0 -50 -22.5t-23 -46.5h-41z" />
<glyph unicode="&#xe4;" horiz-adv-x="753" d="M20 356q0 152 108.5 260.5t260.5 108.5q142 0 246 -94v86h41v-676h57v-41h-98v82q-104 -94 -246 -94q-152 0 -260.5 108t-108.5 260zM61 356q0 -135 96.5 -231t231.5 -96q148 0 246 111v433q-98 111 -246 111q-135 0 -231.5 -96.5t-96.5 -231.5zM246 893v68h65v-68h-65z M467 893v68h65v-68h-65z" />
<glyph unicode="&#xe5;" horiz-adv-x="753" d="M20 356q0 152 108.5 260.5t260.5 108.5q141 0 246 -94v86h41v-676h57v-41h-98v82q-105 -94 -246 -94q-152 0 -260.5 108t-108.5 260zM61 356q0 -135 96.5 -231t231.5 -96q73 0 137 29t109 81v434q-45 52 -109.5 81.5t-136.5 29.5q-135 0 -231.5 -96.5t-96.5 -231.5z M274 944q0 47 34 81t81 34t81 -34t34 -81t-34 -81t-81 -34t-81 34t-34 81zM315 944q0 -29 22.5 -51.5t51.5 -22.5t51.5 22.5t22.5 51.5t-22.5 51.5t-51.5 22.5t-51.5 -22.5t-22.5 -51.5z" />
<glyph unicode="&#xe6;" horiz-adv-x="1290" d="M20 252q0 109 81.5 185.5t195.5 76.5q73 0 135.5 -33.5t99.5 -91.5v60q0 97 -69 166t-166 69q-85 0 -174 -29l-12 39q91 31 186 31q98 0 173 -60.5t97 -154.5q45 97 135 156t199 59q152 0 260.5 -108.5t108.5 -260.5h-697q0 -135 96.5 -231t231.5 -96q103 0 186 58.5 t119 152.5l39 -15q-40 -105 -134 -171t-210 -66q-109 0 -200 59.5t-136 155.5q-22 -93 -96.5 -153t-171.5 -60q-114 0 -195.5 76.5t-81.5 185.5zM61 252q0 -91 69 -156t167 -65t166.5 65t68.5 156t-68.5 156t-166.5 65t-167 -65t-69 -156zM575 397h652q-15 122 -108.5 204.5 t-217.5 82.5t-217.5 -82.5t-108.5 -204.5z" />
<glyph unicode="&#xe7;" horiz-adv-x="747" d="M20 356q0 152 108.5 260.5t260.5 108.5q154 0 266 -115v105h41v-217h-41v49q-45 64 -115 100.5t-151 36.5q-135 0 -231.5 -96.5t-96.5 -231.5t96.5 -231t231.5 -96q100 0 182 54.5t119 143.5l37 -16q-40 -93 -123 -153.5t-186 -67.5l2 -2l-119 -138l-29 29l95 109 q-145 9 -246 115.5t-101 252.5z" />
<glyph unicode="&#xe8;" d="M20 356q0 152 108.5 260.5t260.5 108.5t260.5 -108.5t108.5 -260.5h-697q0 -135 96.5 -231t231.5 -96q103 0 186 58.5t119 152.5l39 -15q-40 -105 -134 -171t-210 -66q-152 0 -260.5 108t-108.5 260zM63 397h652q-15 122 -108.5 204.5t-217.5 82.5t-217.5 -82.5 t-108.5 -204.5zM256 1001l29 29l221 -176l-29 -29z" />
<glyph unicode="&#xe9;" d="M20 356q0 152 108.5 260.5t260.5 108.5t260.5 -108.5t108.5 -260.5h-697q0 -135 96.5 -231t231.5 -96q103 0 186 58.5t119 152.5l39 -15q-40 -105 -134 -171t-210 -66q-152 0 -260.5 108t-108.5 260zM63 397h652q-15 122 -108.5 204.5t-217.5 82.5t-217.5 -82.5 t-108.5 -204.5zM301 854l221 176l29 -29l-221 -176z" />
<glyph unicode="&#xea;" d="M20 356q0 152 108.5 260.5t260.5 108.5t260.5 -108.5t108.5 -260.5h-697q0 -135 96.5 -231t231.5 -96q103 0 186 58.5t119 152.5l39 -15q-40 -105 -134 -171t-210 -66q-152 0 -260.5 108t-108.5 260zM63 397h652q-15 122 -108.5 204.5t-217.5 82.5t-217.5 -82.5 t-108.5 -204.5zM211 834l151 225h62l151 -225h-49l-133 180l-133 -180h-49z" />
<glyph unicode="&#xeb;" d="M20 356q0 152 108.5 260.5t260.5 108.5t260.5 -108.5t108.5 -260.5h-697q0 -135 96.5 -231t231.5 -96q103 0 186 58.5t119 152.5l39 -15q-40 -105 -134 -171t-210 -66q-152 0 -260.5 108t-108.5 260zM63 397h652q-15 122 -108.5 204.5t-217.5 82.5t-217.5 -82.5 t-108.5 -204.5zM246 893v68h65v-68h-65zM467 893v68h65v-68h-65z" />
<glyph unicode="&#xec;" horiz-adv-x="196" d="M14 967l29 28l139 -141l-28 -29zM20 0v41h58v635h-58v41h99v-676h57v-41h-156z" />
<glyph unicode="&#xed;" horiz-adv-x="196" d="M14 854l140 141l28 -28l-139 -142zM20 0v41h58v635h-58v41h99v-676h57v-41h-156z" />
<glyph unicode="&#xee;" horiz-adv-x="196" d="M-84 834l152 225h61l152 -225h-50l-133 180l-133 -180h-49zM20 0v41h58v635h-58v41h99v-676h57v-41h-156z" />
<glyph unicode="&#xef;" horiz-adv-x="196" d="M-29 893v68h66v-68h-66zM20 0v41h58v635h-58v41h99v-676h57v-41h-156zM137 893v68h66v-68h-66z" />
<glyph unicode="&#xf1;" horiz-adv-x="665" d="M20 0v41h58v635h-58v41h99v-92q50 50 103 75t124 25q99 0 170.5 -55t71.5 -142v-487h57v-41h-98v528q0 68 -60 112t-141 44q-66 0 -115.5 -28.5t-111.5 -98.5v-516h57v-41h-156zM145 836q0 41 36 75.5t79 34.5q35 0 67.5 -20.5t60 -41t48.5 -20.5q28 0 47 19.5t21 48.5 h41q-2 -45 -33 -77t-76 -32q-38 0 -92 41t-84 41q-27 0 -50.5 -22.5t-23.5 -46.5h-41z" />
<glyph unicode="&#xf2;" d="M20 356q0 152 108.5 260.5t260.5 108.5t260.5 -108.5t108.5 -260.5t-108.5 -260t-260.5 -108t-260.5 108t-108.5 260zM61 356q0 -135 96.5 -231t231.5 -96t231.5 96t96.5 231t-96.5 231.5t-231.5 96.5t-231.5 -96.5t-96.5 -231.5zM256 1001l29 29l221 -176l-29 -29z" />
<glyph unicode="&#xf3;" d="M20 356q0 152 108.5 260.5t260.5 108.5t260.5 -108.5t108.5 -260.5t-108.5 -260t-260.5 -108t-260.5 108t-108.5 260zM61 356q0 -135 96.5 -231t231.5 -96t231.5 96t96.5 231t-96.5 231.5t-231.5 96.5t-231.5 -96.5t-96.5 -231.5zM281 854l221 176l28 -29l-221 -176z" />
<glyph unicode="&#xf4;" d="M20 356q0 152 108.5 260.5t260.5 108.5t260.5 -108.5t108.5 -260.5t-108.5 -260t-260.5 -108t-260.5 108t-108.5 260zM61 356q0 -135 96.5 -231t231.5 -96t231.5 96t96.5 231t-96.5 231.5t-231.5 96.5t-231.5 -96.5t-96.5 -231.5zM207 834l151 225h62l151 -225h-49 l-133 180l-133 -180h-49z" />
<glyph unicode="&#xf5;" d="M20 356q0 152 108.5 260.5t260.5 108.5t260.5 -108.5t108.5 -260.5t-108.5 -260t-260.5 -108t-260.5 108t-108.5 260zM61 356q0 -135 96.5 -231t231.5 -96t231.5 96t96.5 231t-96.5 231.5t-231.5 96.5t-231.5 -96.5t-96.5 -231.5zM203 836q0 41 35.5 75.5t78.5 34.5 q35 0 68 -20.5t60.5 -41t48.5 -20.5q28 0 46.5 19.5t20.5 48.5h41q-2 -45 -32.5 -77t-75.5 -32q-38 0 -92.5 41t-84.5 41q-27 0 -50 -22.5t-23 -46.5h-41z" />
<glyph unicode="&#xf6;" d="M20 356q0 152 108.5 260.5t260.5 108.5t260.5 -108.5t108.5 -260.5t-108.5 -260t-260.5 -108t-260.5 108t-108.5 260zM61 356q0 -135 96.5 -231t231.5 -96t231.5 96t96.5 231t-96.5 231.5t-231.5 96.5t-231.5 -96.5t-96.5 -231.5zM246 893v68h65v-68h-65zM467 893v68h65 v-68h-65z" />
<glyph unicode="&#xf9;" horiz-adv-x="665" d="M20 676v41h99v-502q0 -77 58.5 -129.5t141.5 -52.5q128 0 228 139v504h-58v41h99v-676h57v-41h-98v106q-99 -114 -228 -114q-99 0 -170 64t-71 159v461h-58zM184 1001l29 29l221 -176l-28 -29z" />
<glyph unicode="&#xfa;" horiz-adv-x="665" d="M20 676v41h99v-502q0 -77 58.5 -129.5t141.5 -52.5q128 0 228 139v504h-58v41h99v-676h57v-41h-98v106q-99 -114 -228 -114q-99 0 -170 64t-71 159v461h-58zM209 854l221 176l29 -29l-221 -176z" />
<glyph unicode="&#xfb;" horiz-adv-x="665" d="M20 676v41h99v-502q0 -77 58.5 -129.5t141.5 -52.5q128 0 228 139v504h-58v41h99v-676h57v-41h-98v106q-99 -114 -228 -114q-99 0 -170 64t-71 159v461h-58zM127 834l152 225h61l152 -225h-50l-133 180l-133 -180h-49z" />
<glyph unicode="&#xfc;" horiz-adv-x="665" d="M20 676v41h99v-502q0 -77 58.5 -129.5t141.5 -52.5q128 0 228 139v504h-58v41h99v-676h57v-41h-98v106q-99 -114 -228 -114q-99 0 -170 64t-71 159v461h-58zM164 893v68h65v-68h-65zM385 893v68h66v-68h-66z" />
<glyph unicode="&#xfd;" horiz-adv-x="759" d="M20 676v41h162v-41h-61l266 -613l246 613h-55v41h161v-41h-63l-514 -1284h55v-41h-162v41h64l246 618l-289 666h-56zM301 854l221 176l29 -29l-221 -176z" />
<glyph unicode="&#xff;" horiz-adv-x="759" d="M20 676v41h162v-41h-61l266 -613l246 613h-55v41h161v-41h-63l-514 -1284h55v-41h-162v41h64l246 618l-289 666h-56zM246 893v68h65v-68h-65zM467 893v68h65v-68h-65z" />
<glyph unicode="&#x152;" horiz-adv-x="1452" d="M20 680q0 90 16 185t50 186.5t81.5 163t116 115.5t146.5 44q65 0 121.5 -30t98.5 -83t72.5 -119t51.5 -145v330h-61v41h719v-102h-41v61h-576v-610h332v61h41v-164h-41v62h-332v-635h576v61h41v-102h-719v41h61v321q-28 -107 -72 -188.5t-115 -134.5t-157 -53 q-78 0 -146.5 44t-116 115.5t-81.5 163t-50 186.5t-16 185zM61 680q0 -115 26.5 -230.5t72.5 -210t117 -153.5t153 -59q81 0 148 58.5t109 153.5t64.5 209t22.5 232t-22.5 232t-64.5 209t-109 153.5t-148 58.5q-82 0 -153 -59t-117 -153.5t-72.5 -210t-26.5 -230.5z" />
<glyph unicode="&#x153;" horiz-adv-x="1474" d="M20 356q0 152 108.5 260.5t260.5 108.5q118 0 213.5 -69.5t134.5 -178.5q39 109 134.5 178.5t213.5 69.5q152 0 260.5 -108.5t108.5 -260.5h-696q0 -135 96 -231t231 -96q103 0 186.5 58.5t119.5 152.5l39 -15q-40 -105 -134.5 -171t-210.5 -66q-118 0 -213.5 69.5 t-134.5 178.5q-39 -109 -134.5 -178.5t-213.5 -69.5q-152 0 -260.5 108t-108.5 260zM61 356q0 -135 96.5 -231t231.5 -96t231.5 96t96.5 231t-96.5 231.5t-231.5 96.5t-231.5 -96.5t-96.5 -231.5zM760 397h651q-15 122 -108.5 204.5t-217.5 82.5t-217 -82.5t-108 -204.5z " />
<glyph unicode="&#x2000;" horiz-adv-x="708" />
<glyph unicode="&#x2001;" horiz-adv-x="1417" />
<glyph unicode="&#x2002;" horiz-adv-x="708" />
<glyph unicode="&#x2003;" horiz-adv-x="1417" />
<glyph unicode="&#x2004;" horiz-adv-x="472" />
<glyph unicode="&#x2005;" horiz-adv-x="354" />
<glyph unicode="&#x2006;" horiz-adv-x="236" />
<glyph unicode="&#x2007;" horiz-adv-x="236" />
<glyph unicode="&#x2008;" horiz-adv-x="177" />
<glyph unicode="&#x2009;" horiz-adv-x="283" />
<glyph unicode="&#x200a;" horiz-adv-x="78" />
<glyph unicode="&#x2010;" horiz-adv-x="528" d="M41 414v57h446v-57h-446z" />
<glyph unicode="&#x2011;" horiz-adv-x="528" d="M41 414v57h446v-57h-446z" />
<glyph unicode="&#x2012;" horiz-adv-x="528" d="M41 414v57h446v-57h-446z" />
<glyph unicode="&#x2013;" horiz-adv-x="1106" d="M41 414v57h1024v-57h-1024z" />
<glyph unicode="&#x2014;" horiz-adv-x="2130" d="M41 414v57h2048v-57h-2048z" />
<glyph unicode="&#x202f;" horiz-adv-x="283" />
<glyph unicode="&#x205f;" horiz-adv-x="354" />
<glyph unicode="&#xe000;" horiz-adv-x="716" d="M0 0v717h717v-717h-717z" />
</font>
</defs>
</svg>
